<?xml version="1.0" encoding="utf-8"?>
<!-- Generator: Adobe Illustrator 26.2.1, SVG Export Plug-In . SVG Version: 6.00 Build 0)  -->
<svg version="1.1" id="Layer_1" xmlns="http://www.w3.org/2000/svg" xmlns:xlink="http://www.w3.org/1999/xlink" x="0px" y="0px"
	 viewBox="0 0 1219.6 789" style="enable-background:new 0 0 1219.6 789;" xml:space="preserve">
<style type="text/css">
	.st0{opacity:0.4;}
	.st1{fill:#DDDDDD;}
	.st2{fill:#E0E0E0;}
	.st3{fill:#C6C7C7;}
	.st4{fill:#F2F2F2;}
	.st5{opacity:0.55;}
	.st6{fill:#91C8F4;}
	.st7{opacity:0.26;}
	.st8{fill:#007ECC;}
	.st9{opacity:0.4;fill:#91C8F4;}
	.st10{fill:#B1E9ED;}
	.st11{fill:#91C8F4;stroke:#91C8F4;stroke-width:0.5926;stroke-miterlimit:10;}
	.st12{fill:url(#SVGID_1_);}
	.st13{fill:#197BBF;}
	.st14{fill:#05387D;}
	.st15{fill:#82CAF8;}
	.st16{fill:#FFFFFF;}
	.st17{fill:#FEE800;}
	.st18{fill:#FFFFFC;}
	.st19{fill:none;stroke:#FFFFFC;stroke-width:0.9671;stroke-miterlimit:10;}
	.st20{fill:none;stroke:#E5E6E6;stroke-width:0.7253;stroke-miterlimit:10;}
	.st21{fill:#E5E6E6;}
	.st22{fill:#86C7EE;}
	.st23{fill:#373848;}
	.st24{opacity:0.35;fill:#197BBF;}
	.st25{opacity:0.28;}
	.st26{fill:#007ECC;stroke:#007ECC;stroke-width:0.689;stroke-miterlimit:10;}
	.st27{opacity:0.37;fill:#007ECC;}
	.st28{fill:#91C8F4;stroke:#91C8F4;stroke-width:0.689;stroke-miterlimit:10;}
	.st29{fill:none;stroke:#05387D;stroke-width:0.8469;stroke-linecap:round;stroke-miterlimit:10;}
</style>
<g>
	<g class="st0">
		<g>
			
				<rect x="866.9" y="51" transform="matrix(-1 -4.501123e-11 4.501123e-11 -1 1774.5239 556.7558)" class="st1" width="40.7" height="454.7"/>
			
				<rect x="302.2" y="51" transform="matrix(-1 -4.501123e-11 4.501123e-11 -1 645.1527 556.7558)" class="st1" width="40.7" height="454.7"/>
			
				<rect x="578.3" y="51" transform="matrix(-1 -4.483270e-11 4.483270e-11 -1 1197.3502 489.7691)" class="st1" width="40.7" height="387.7"/>
			<g>
				<rect x="985.4" y="183.5" class="st1" width="47.3" height="39"/>
				<rect x="961.7" y="183.5" class="st2" width="47.3" height="39"/>
				<polygon class="st3" points="1032.7,212.7 1025.2,212.7 1025.9,210.6 1025.2,209.1 1032.7,209.1 				"/>
				<polygon class="st3" points="1009.1,195.6 1001.6,195.6 1002.2,193.5 1001.6,192 1009.1,192 				"/>
				<polygon class="st3" points="1009.1,192 1016.6,192 1015.9,194.1 1016.6,195.6 1009.1,195.6 				"/>
				<polygon class="st3" points="961.7,213.1 969.2,213.1 968.6,215.2 969.2,216.7 961.7,216.7 				"/>
				
					<rect x="964.8" y="186.2" transform="matrix(-1 -4.519330e-11 4.519330e-11 -1 1943.3136 377.6628)" class="st1" width="13.6" height="5.3"/>
			</g>
			<g>
				<rect x="699.2" y="196.5" class="st1" width="31.6" height="26"/>
				<rect x="683.4" y="196.5" class="st2" width="31.6" height="26"/>
				<polygon class="st3" points="730.7,216 725.7,216 726.2,214.6 725.7,213.6 730.7,213.6 				"/>
				<polygon class="st3" points="715,204.6 710,204.6 710.4,203.2 710,202.2 715,202.2 				"/>
				<polygon class="st3" points="715,202.2 720,202.2 719.5,203.6 720,204.6 715,204.6 				"/>
				<polygon class="st3" points="683.4,216.3 688.4,216.3 688,217.7 688.4,218.7 683.4,218.7 				"/>
				
					<rect x="685.5" y="198.3" transform="matrix(-1 -4.455826e-11 4.455826e-11 -1 1380.0576 400.1569)" class="st1" width="9.1" height="3.5"/>
			</g>
			<g>
				<rect x="759.1" y="188.8" class="st1" width="40.9" height="33.7"/>
				<rect x="738.7" y="188.8" class="st2" width="40.9" height="33.7"/>
				<polygon class="st3" points="800,214 793.6,214 794.1,212.2 793.6,210.9 800,210.9 				"/>
				<polygon class="st3" points="779.6,199.3 773.1,199.3 773.7,197.4 773.1,196.1 779.6,196.1 				"/>
				<polygon class="st3" points="779.6,196.1 786.1,196.1 785.5,198 786.1,199.3 779.6,199.3 				"/>
				<polygon class="st3" points="738.7,214.4 745.2,214.4 744.6,216.2 745.2,217.5 738.7,217.5 				"/>
				
					<rect x="741.4" y="191.1" transform="matrix(-1 -4.510537e-11 4.510537e-11 -1 1494.4945 386.8194)" class="st1" width="11.8" height="4.6"/>
			</g>
			<g>
				<rect x="1069" y="183.5" class="st1" width="47.3" height="39"/>
				<rect x="1045.4" y="183.5" class="st2" width="47.3" height="39"/>
				<polygon class="st3" points="1116.3,212.7 1108.8,212.7 1109.5,210.6 1108.8,209.1 1116.3,209.1 				"/>
				<polygon class="st3" points="1092.7,195.6 1085.2,195.6 1085.9,193.5 1085.2,192 1092.7,192 				"/>
				<polygon class="st3" points="1092.7,192 1100.2,192 1099.5,194.1 1100.2,195.6 1092.7,195.6 				"/>
				<polygon class="st3" points="1045.4,213.1 1052.9,213.1 1052.2,215.2 1052.9,216.7 1045.4,216.7 				"/>
				
					<rect x="1048.5" y="186.2" transform="matrix(-1 -4.472657e-11 4.472657e-11 -1 2110.5359 377.6628)" class="st1" width="13.6" height="5.3"/>
			</g>
			
				<rect x="336" y="249.6" transform="matrix(-1 -4.489132e-11 4.489132e-11 -1 873.5454 687.2128)" class="st4" width="201.5" height="188"/>
			<g>
				
					<rect x="342.3" y="255.4" transform="matrix(-1 -4.491975e-11 4.491975e-11 -1 873.5452 529.2159)" class="st4" width="188.9" height="18.4"/>
				
					<rect x="342.3" y="291.9" transform="matrix(-1 -4.487667e-11 4.487667e-11 -1 873.5452 602.2717)" class="st4" width="188.9" height="18.4"/>
				
					<rect x="342.3" y="273.7" transform="matrix(-1 -4.488111e-11 4.488111e-11 -1 873.5452 565.7439)" class="st2" width="188.9" height="18.4"/>
				
					<rect x="342.3" y="328.5" transform="matrix(-1 -4.491975e-11 4.491975e-11 -1 873.5452 675.3271)" class="st4" width="188.9" height="18.4"/>
				
					<rect x="342.3" y="310.2" transform="matrix(-1 -4.492951e-11 4.492951e-11 -1 873.5452 638.7994)" class="st2" width="188.9" height="18.4"/>
				
					<rect x="342.3" y="364.6" transform="matrix(-1 -4.488599e-11 4.488599e-11 -1 873.5452 747.5943)" class="st4" width="188.9" height="18.4"/>
				
					<rect x="342.3" y="346.3" transform="matrix(-1 -4.488599e-11 4.488599e-11 -1 873.5452 711.0666)" class="st2" width="188.9" height="18.4"/>
				
					<rect x="342.3" y="382.7" transform="matrix(-1 -4.492463e-11 4.492463e-11 -1 873.5452 783.7903)" class="st2" width="188.9" height="18.4"/>
				
					<rect x="342.3" y="401.1" transform="matrix(-1 -4.488599e-11 4.488599e-11 -1 873.5452 820.6258)" class="st4" width="188.9" height="18.4"/>
				
					<rect x="342.3" y="419.2" transform="matrix(-1 -4.492463e-11 4.492463e-11 -1 873.5452 856.8218)" class="st2" width="188.9" height="18.4"/>
			</g>
			
				<rect x="336" y="201.3" transform="matrix(-1 -4.488644e-11 4.488644e-11 -1 873.5454 437.5182)" class="st1" width="201.5" height="34.9"/>
			<g>
				
					<rect x="1128.8" y="222.6" transform="matrix(-1 -4.445123e-11 4.445123e-11 -1 2275.7866 729.3339)" class="st1" width="18.2" height="284.2"/>
				
					<rect x="932.2" y="222.6" transform="matrix(-1 -4.470259e-11 4.470259e-11 -1 1879.5613 729.3339)" class="st1" width="15.1" height="284.2"/>
				
					<rect x="932.2" y="222.6" transform="matrix(-1 -4.488333e-11 4.488333e-11 -1 2061.0005 450.7992)" class="st3" width="196.6" height="5.7"/>
				
					<rect x="932.2" y="325.5" transform="matrix(-1 -4.488333e-11 4.488333e-11 -1 2061.0005 656.6945)" class="st3" width="196.6" height="5.7"/>
				
					<rect x="932.2" y="411.9" transform="matrix(-1 -4.488821e-11 4.488821e-11 -1 2061.0005 829.3809)" class="st3" width="196.6" height="5.7"/>
				<g>
					<rect x="980.5" y="285.2" class="st3" width="48.9" height="40.4"/>
					<rect x="956.1" y="285.2" class="st2" width="48.9" height="40.4"/>
					<polygon class="st3" points="1029.5,315.3 1021.7,315.3 1022.4,313.1 1021.7,311.5 1029.5,311.5 					"/>
					<polygon class="st3" points="1005,297.6 997.3,297.6 997.9,295.5 997.3,293.9 1005,293.9 					"/>
					<polygon class="st3" points="1005,293.9 1012.8,293.9 1012.1,296.1 1012.8,297.6 1005,297.6 					"/>
					<polygon class="st3" points="956.1,315.7 963.8,315.7 963.1,317.9 963.8,319.5 956.1,319.5 					"/>
					
						<rect x="959.3" y="287.9" transform="matrix(-1 -4.429402e-11 4.429402e-11 -1 1932.6168 581.2718)" class="st1" width="14.1" height="5.5"/>
				</g>
				<g>
					<rect x="1043.4" y="285.2" class="st1" width="48.9" height="40.4"/>
					<rect x="1018.9" y="285.2" class="st2" width="48.9" height="40.4"/>
					<polygon class="st3" points="1092.3,315.3 1084.5,315.3 1085.2,313.1 1084.5,311.5 1092.3,311.5 					"/>
					<polygon class="st3" points="1067.8,297.6 1060.1,297.6 1060.8,295.5 1060.1,293.9 1067.8,293.9 					"/>
					<polygon class="st3" points="1067.8,293.9 1075.6,293.9 1074.9,296.1 1075.6,297.6 1067.8,297.6 					"/>
					<polygon class="st3" points="1018.9,315.7 1026.6,315.7 1025.9,317.9 1026.6,319.5 1018.9,319.5 					"/>
					<polygon class="st3" points="1018.9,293.4 1026.6,293.4 1025.9,295.6 1026.6,297.1 1018.9,297.1 					"/>
					
						<rect x="1039.9" y="312.3" transform="matrix(-1 -4.516177e-11 4.516177e-11 -1 2102.8069 633.4647)" class="st1" width="23" height="8.9"/>
				</g>
				<g>
					<rect x="987.2" y="376.8" class="st1" width="42.3" height="34.9"/>
					<rect x="966" y="376.8" class="st2" width="42.3" height="34.9"/>
					<polygon class="st3" points="1029.5,402.9 1022.8,402.9 1023.3,401 1022.8,399.7 1029.5,399.7 					"/>
					<polygon class="st3" points="1008.3,387.6 1001.6,387.6 1002.2,385.8 1001.6,384.4 1008.3,384.4 					"/>
					<polygon class="st3" points="1008.3,384.4 1015,384.4 1014.4,386.3 1015,387.6 1008.3,387.6 					"/>
					<polygon class="st3" points="966,403.3 972.7,403.3 972.1,405.1 972.7,406.5 966,406.5 					"/>
					
						<rect x="968.8" y="379.2" transform="matrix(-1 -4.482249e-11 4.482249e-11 -1 1949.7611 763.1656)" class="st1" width="12.2" height="4.7"/>
				</g>
				<g>
					<rect x="1060.9" y="371.4" class="st1" width="48.9" height="40.4"/>
					<rect x="1036.4" y="371.4" class="st2" width="48.9" height="40.4"/>
					<polygon class="st3" points="1109.8,401.5 1102,401.5 1102.7,399.3 1102,397.8 1109.8,397.8 					"/>
					<polygon class="st3" points="1085.4,383.9 1077.6,383.9 1078.3,381.7 1077.6,380.1 1085.4,380.1 					"/>
					<polygon class="st3" points="1085.4,380.1 1093.1,380.1 1092.4,382.3 1093.1,383.9 1085.4,383.9 					"/>
					<polygon class="st3" points="1036.4,401.9 1044.2,401.9 1043.5,404.1 1044.2,405.7 1036.4,405.7 					"/>
					
						<rect x="1039.6" y="374.1" transform="matrix(-1 -4.532697e-11 4.532697e-11 -1 2093.3176 753.6987)" class="st1" width="14.1" height="5.5"/>
				</g>
				<g>
					<rect x="1058.6" y="254.1" class="st1" width="37.4" height="30.9"/>
					<rect x="1039.9" y="254.1" class="st2" width="37.4" height="30.9"/>
					<polygon class="st3" points="1096,277.1 1090.1,277.1 1090.6,275.5 1090.1,274.3 1096,274.3 					"/>
					<polygon class="st3" points="1077.3,263.7 1071.4,263.7 1071.9,262 1071.4,260.8 1077.3,260.8 					"/>
					<polygon class="st3" points="1077.3,260.8 1083.3,260.8 1082.8,262.5 1083.3,263.7 1077.3,263.7 					"/>
					<polygon class="st3" points="1039.9,277.5 1045.9,277.5 1045.3,279.1 1045.9,280.3 1039.9,280.3 					"/>
					
						<rect x="1042.4" y="256.2" transform="matrix(-1 -4.493218e-11 4.493218e-11 -1 2095.5188 516.6105)" class="st1" width="10.8" height="4.2"/>
				</g>
				<g>
					<rect x="991.8" y="254.1" class="st1" width="37.4" height="30.9"/>
					<rect x="973.1" y="254.1" class="st2" width="37.4" height="30.9"/>
					<polygon class="st3" points="1029.2,277.1 1023.2,277.1 1023.8,275.5 1023.2,274.3 1029.2,274.3 					"/>
					<polygon class="st3" points="1010.5,263.7 1004.6,263.7 1005.1,262 1004.6,260.8 1010.5,260.8 					"/>
					<polygon class="st3" points="1010.5,260.8 1016.4,260.8 1015.9,262.5 1016.4,263.7 1010.5,263.7 					"/>
					<polygon class="st3" points="973.1,277.5 979,277.5 978.5,279.1 979,280.3 973.1,280.3 					"/>
					
						<rect x="975.5" y="256.2" transform="matrix(-1 -4.493218e-11 4.493218e-11 -1 1961.8004 516.6105)" class="st1" width="10.8" height="4.2"/>
				</g>
				<g>
					
						<rect x="1054.9" y="348" transform="matrix(-1 -4.482915e-11 4.482915e-11 -1 2138.156 719.3148)" class="st3" width="28.4" height="23.4"/>
					
						<rect x="1069.1" y="348" transform="matrix(-1 -4.482915e-11 4.482915e-11 -1 2166.519 719.3148)" class="st3" width="28.4" height="23.4"/>
					<polygon class="st3" points="1054.9,365.4 1059.4,365.4 1059,364.2 1059.4,363.3 1054.9,363.3 					"/>
					<polygon class="st1" points="1069.1,355.2 1073.6,355.2 1073.2,353.9 1073.6,353 1069.1,353 					"/>
					<polygon class="st3" points="1069.1,353 1064.6,353 1065,354.3 1064.6,355.2 1069.1,355.2 					"/>
					<polygon class="st1" points="1097.4,365.7 1092.9,365.7 1093.3,366.9 1092.9,367.8 1097.4,367.8 					"/>
					<rect x="1087.4" y="349.5" class="st1" width="8.2" height="3.2"/>
				</g>
			</g>
			<g>
				
					<rect x="855.3" y="222.6" transform="matrix(-1 -4.500368e-11 4.500368e-11 -1 1727.1682 729.3339)" class="st1" width="16.7" height="284.2"/>
				
					<rect x="658.7" y="222.6" transform="matrix(-1 -4.490065e-11 4.490065e-11 -1 1333.527 662.3472)" class="st1" width="16.2" height="217.2"/>
				
					<rect x="658.7" y="222.6" transform="matrix(-1 -4.488333e-11 4.488333e-11 -1 1513.9392 450.2404)" class="st3" width="196.6" height="5.1"/>
				
					<rect x="658.7" y="325.5" transform="matrix(-1 -4.492063e-11 4.492063e-11 -1 1513.9392 656.6945)" class="st3" width="196.6" height="5.7"/>
				
					<rect x="658.7" y="411.9" transform="matrix(-1 -4.487889e-11 4.487889e-11 -1 1513.9392 830.4603)" class="st3" width="196.6" height="6.7"/>
				<g>
					<rect x="707" y="285.2" class="st1" width="48.9" height="40.4"/>
					<rect x="682.5" y="285.2" class="st2" width="48.9" height="40.4"/>
					<polygon class="st3" points="755.9,315.3 748.2,315.3 748.9,313.1 748.2,311.5 755.9,311.5 					"/>
					<polygon class="st3" points="731.5,297.6 723.7,297.6 724.4,295.5 723.7,293.9 731.5,293.9 					"/>
					<polygon class="st3" points="731.5,293.9 739.2,293.9 738.6,296.1 739.2,297.6 731.5,297.6 					"/>
					<polygon class="st3" points="682.5,315.7 690.3,315.7 689.6,317.9 690.3,319.5 682.5,319.5 					"/>
					
						<rect x="685.7" y="287.9" transform="matrix(-1 -4.429358e-11 4.429358e-11 -1 1385.5555 581.2718)" class="st1" width="14.1" height="5.5"/>
				</g>
				<g>
					<rect x="769.8" y="285.2" class="st1" width="48.9" height="40.4"/>
					<rect x="745.3" y="285.2" class="st2" width="48.9" height="40.4"/>
					<polygon class="st3" points="818.7,315.3 811,315.3 811.7,313.1 811,311.5 818.7,311.5 					"/>
					<polygon class="st3" points="794.3,297.6 786.5,297.6 787.2,295.5 786.5,293.9 794.3,293.9 					"/>
					<polygon class="st3" points="794.3,293.9 802.1,293.9 801.4,296.1 802.1,297.6 794.3,297.6 					"/>
					<polygon class="st3" points="745.3,315.7 753.1,315.7 752.4,317.9 753.1,319.5 745.3,319.5 					"/>
					
						<rect x="771.5" y="313.8" transform="matrix(-1 -4.460444e-11 4.460444e-11 -1 1561.9331 635.0427)" class="st1" width="18.9" height="7.4"/>
				</g>
				<g>
					<rect x="786.3" y="377.4" class="st1" width="41.6" height="34.3"/>
					<rect x="765.5" y="377.4" class="st2" width="41.6" height="34.3"/>
					<polygon class="st3" points="827.9,403 821.3,403 821.9,401.2 821.3,399.9 827.9,399.9 					"/>
					<polygon class="st3" points="807.1,388 800.5,388 801.1,386.2 800.5,384.9 807.1,384.9 					"/>
					<polygon class="st3" points="807.1,384.9 813.7,384.9 813.1,386.7 813.7,388 807.1,388 					"/>
					<polygon class="st3" points="765.5,403.4 772.1,403.4 771.5,405.3 772.1,406.6 765.5,406.6 					"/>
					
						<rect x="768.2" y="379.7" transform="matrix(-1 -4.496282e-11 4.496282e-11 -1 1548.3901 764.1542)" class="st1" width="12" height="4.7"/>
				</g>
				<g>
					<rect x="718.7" y="377.3" class="st1" width="41.7" height="34.4"/>
					<rect x="697.9" y="377.3" class="st2" width="41.7" height="34.4"/>
					<polygon class="st3" points="760.4,403 753.8,403 754.4,401.2 753.8,399.8 760.4,399.8 					"/>
					<polygon class="st3" points="739.6,388 733,388 733.5,386.1 733,384.8 739.6,384.8 					"/>
					<polygon class="st3" points="739.6,384.8 746.2,384.8 745.6,386.7 746.2,388 739.6,388 					"/>
					<polygon class="st3" points="697.9,403.4 704.5,403.4 703.9,405.2 704.5,406.6 697.9,406.6 					"/>
					
						<rect x="700.6" y="379.7" transform="matrix(-1 -4.545843e-11 4.545843e-11 -1 1413.1881 764.0082)" class="st1" width="12" height="4.7"/>
				</g>
				<g>
					<rect x="785.1" y="254.4" class="st1" width="37.4" height="30.9"/>
					<rect x="766.4" y="254.4" class="st2" width="37.4" height="30.9"/>
					<polygon class="st3" points="822.5,277.4 816.6,277.4 817.1,275.7 816.6,274.5 822.5,274.5 					"/>
					<polygon class="st3" points="803.8,263.9 797.9,263.9 798.4,262.2 797.9,261 803.8,261 					"/>
					<polygon class="st3" points="803.8,261 809.8,261 809.2,262.7 809.8,263.9 803.8,263.9 					"/>
					<polygon class="st3" points="766.4,277.7 772.3,277.7 771.8,279.4 772.3,280.6 766.4,280.6 					"/>
					
						<rect x="768.9" y="256.4" transform="matrix(-1 -4.417234e-11 4.417234e-11 -1 1548.5107 517.0875)" class="st1" width="10.8" height="4.2"/>
				</g>
				<g>
					
						<rect x="716.9" y="261.8" transform="matrix(-1 -4.482915e-11 4.482915e-11 -1 1462.115 546.9868)" class="st3" width="28.4" height="23.4"/>
					
						<rect x="731.1" y="261.8" transform="matrix(-1 -4.482871e-11 4.482871e-11 -1 1490.4778 546.9868)" class="st3" width="28.4" height="23.4"/>
					<polygon class="st3" points="716.9,279.3 721.4,279.3 721,278 721.4,277.1 716.9,277.1 					"/>
					<polygon class="st1" points="731.1,269 735.6,269 735.2,267.8 735.6,266.9 731.1,266.9 					"/>
					<polygon class="st3" points="731.1,266.9 726.6,266.9 727,268.1 726.6,269 731.1,269 					"/>
					<polygon class="st1" points="759.4,279.5 754.9,279.5 755.3,280.8 754.9,281.7 759.4,281.7 					"/>
					<rect x="749.4" y="263.4" class="st1" width="8.2" height="3.2"/>
				</g>
			</g>
			<g>
				<path class="st1" d="M945.8,129.3h162.8c2.8,0,5.1-2.3,5.1-5.1l0,0c0-2.8-2.3-5.1-5.1-5.1H945.8c-2.8,0-5.1,2.3-5.1,5.1l0,0
					C940.7,127,942.9,129.3,945.8,129.3z"/>
				
					<rect x="1088.2" y="57.7" transform="matrix(-1 -4.468571e-11 4.468571e-11 -1 2181.5779 176.8311)" class="st1" width="5.1" height="61.4"/>
				
					<rect x="961.7" y="57.7" transform="matrix(-1 -4.450541e-11 4.450541e-11 -1 1928.4298 176.8311)" class="st1" width="5.1" height="61.4"/>
			</g>
			<g>
				<rect x="120" y="183.5" class="st1" width="47.3" height="39"/>
				<rect x="96.4" y="183.5" class="st2" width="47.3" height="39"/>
				<polygon class="st3" points="167.3,212.7 159.8,212.7 160.5,210.6 159.8,209.1 167.3,209.1 				"/>
				<polygon class="st3" points="143.7,195.6 136.2,195.6 136.9,193.5 136.2,192 143.7,192 				"/>
				<polygon class="st3" points="143.7,192 151.2,192 150.5,194.1 151.2,195.6 143.7,195.6 				"/>
				<polygon class="st3" points="96.4,213.1 103.9,213.1 103.2,215.2 103.9,216.7 96.4,216.7 				"/>
				
					<rect x="99.5" y="186.2" transform="matrix(-1 -4.519330e-11 4.519330e-11 -1 212.5291 377.6628)" class="st1" width="13.6" height="5.3"/>
			</g>
			<g>
				<rect x="203.6" y="183.5" class="st1" width="47.3" height="39"/>
				<rect x="180" y="183.5" class="st2" width="47.3" height="39"/>
				<polygon class="st3" points="251,212.7 243.5,212.7 244.1,210.6 243.5,209.1 251,209.1 				"/>
				<polygon class="st3" points="227.3,195.6 219.8,195.6 220.5,193.5 219.8,192 227.3,192 				"/>
				<polygon class="st3" points="227.3,192 234.8,192 234.1,194.1 234.8,195.6 227.3,195.6 				"/>
				<polygon class="st3" points="180,213.1 187.5,213.1 186.8,215.2 187.5,216.7 180,216.7 				"/>
				
					<rect x="183.1" y="186.2" transform="matrix(-1 -4.472657e-11 4.472657e-11 -1 379.7513 377.6628)" class="st1" width="13.6" height="5.3"/>
			</g>
			<g>
				
					<rect x="263.4" y="222.6" transform="matrix(-1 -4.445123e-11 4.445123e-11 -1 545.002 729.3339)" class="st1" width="18.2" height="284.2"/>
				
					<rect x="66.8" y="222.6" transform="matrix(-1 -4.470259e-11 4.470259e-11 -1 148.7767 729.3339)" class="st1" width="15.1" height="284.2"/>
				
					<rect x="66.8" y="222.6" transform="matrix(-1 -4.488333e-11 4.488333e-11 -1 330.2159 450.7992)" class="st3" width="196.6" height="5.7"/>
				
					<rect x="66.8" y="325.5" transform="matrix(-1 -4.488333e-11 4.488333e-11 -1 330.2159 656.6945)" class="st3" width="196.6" height="5.7"/>
				
					<rect x="66.8" y="411.9" transform="matrix(-1 -4.488821e-11 4.488821e-11 -1 330.2159 829.3809)" class="st3" width="196.6" height="5.7"/>
				<g>
					<rect x="115.1" y="285.2" class="st3" width="48.9" height="40.4"/>
					<rect x="90.7" y="285.2" class="st2" width="48.9" height="40.4"/>
					<polygon class="st3" points="164.1,315.3 156.3,315.3 157,313.1 156.3,311.5 164.1,311.5 					"/>
					<polygon class="st3" points="139.6,297.6 131.9,297.6 132.5,295.5 131.9,293.9 139.6,293.9 					"/>
					<polygon class="st3" points="139.6,293.9 147.4,293.9 146.7,296.1 147.4,297.6 139.6,297.6 					"/>
					<polygon class="st3" points="90.7,315.7 98.4,315.7 97.7,317.9 98.4,319.5 90.7,319.5 					"/>
					
						<rect x="93.9" y="287.9" transform="matrix(-1 -4.429402e-11 4.429402e-11 -1 201.8324 581.2718)" class="st1" width="14.1" height="5.5"/>
				</g>
				<g>
					<rect x="178" y="285.2" class="st1" width="48.9" height="40.4"/>
					<rect x="153.5" y="285.2" class="st2" width="48.9" height="40.4"/>
					<polygon class="st3" points="226.9,315.3 219.1,315.3 219.8,313.1 219.1,311.5 226.9,311.5 					"/>
					<polygon class="st3" points="202.4,297.6 194.7,297.6 195.4,295.5 194.7,293.9 202.4,293.9 					"/>
					<polygon class="st3" points="202.4,293.9 210.2,293.9 209.5,296.1 210.2,297.6 202.4,297.6 					"/>
					<polygon class="st3" points="153.5,315.7 161.2,315.7 160.6,317.9 161.2,319.5 153.5,319.5 					"/>
					<polygon class="st3" points="153.5,293.4 161.2,293.4 160.6,295.6 161.2,297.1 153.5,297.1 					"/>
					
						<rect x="174.5" y="312.3" transform="matrix(-1 -4.516177e-11 4.516177e-11 -1 372.0222 633.4647)" class="st1" width="23" height="8.9"/>
				</g>
				<g>
					<rect x="121.8" y="376.8" class="st1" width="42.3" height="34.9"/>
					<rect x="100.6" y="376.8" class="st2" width="42.3" height="34.9"/>
					<polygon class="st3" points="164.1,402.9 157.4,402.9 158,401 157.4,399.7 164.1,399.7 					"/>
					<polygon class="st3" points="142.9,387.6 136.2,387.6 136.8,385.8 136.2,384.4 142.9,384.4 					"/>
					<polygon class="st3" points="142.9,384.4 149.6,384.4 149.1,386.3 149.6,387.6 142.9,387.6 					"/>
					<polygon class="st3" points="100.6,403.3 107.3,403.3 106.7,405.1 107.3,406.5 100.6,406.5 					"/>
					
						<rect x="103.4" y="379.2" transform="matrix(-1 -4.482249e-11 4.482249e-11 -1 218.9766 763.1656)" class="st1" width="12.2" height="4.7"/>
				</g>
				<g>
					<rect x="195.5" y="371.4" class="st1" width="48.9" height="40.4"/>
					<rect x="171" y="371.4" class="st2" width="48.9" height="40.4"/>
					<polygon class="st3" points="244.4,401.5 236.7,401.5 237.3,399.3 236.7,397.8 244.4,397.8 					"/>
					<polygon class="st3" points="220,383.9 212.2,383.9 212.9,381.7 212.2,380.1 220,380.1 					"/>
					<polygon class="st3" points="220,380.1 227.7,380.1 227,382.3 227.7,383.9 220,383.9 					"/>
					<polygon class="st3" points="171,401.9 178.8,401.9 178.1,404.1 178.8,405.7 171,405.7 					"/>
					
						<rect x="174.2" y="374.1" transform="matrix(-1 -4.532697e-11 4.532697e-11 -1 362.533 753.6987)" class="st1" width="14.1" height="5.5"/>
				</g>
				<g>
					<rect x="193.2" y="254.1" class="st1" width="37.4" height="30.9"/>
					<rect x="174.5" y="254.1" class="st2" width="37.4" height="30.9"/>
					<polygon class="st3" points="230.6,277.1 224.7,277.1 225.2,275.5 224.7,274.3 230.6,274.3 					"/>
					<polygon class="st3" points="212,263.7 206,263.7 206.5,262 206,260.8 212,260.8 					"/>
					<polygon class="st3" points="212,260.8 217.9,260.8 217.4,262.5 217.9,263.7 212,263.7 					"/>
					<polygon class="st3" points="174.5,277.5 180.5,277.5 179.9,279.1 180.5,280.3 174.5,280.3 					"/>
					
						<rect x="177" y="256.2" transform="matrix(-1 -4.493218e-11 4.493218e-11 -1 364.7343 516.6105)" class="st1" width="10.8" height="4.2"/>
				</g>
				<g>
					<rect x="126.4" y="254.1" class="st1" width="37.4" height="30.9"/>
					<rect x="107.7" y="254.1" class="st2" width="37.4" height="30.9"/>
					<polygon class="st3" points="163.8,277.1 157.9,277.1 158.4,275.5 157.9,274.3 163.8,274.3 					"/>
					<polygon class="st3" points="145.1,263.7 139.2,263.7 139.7,262 139.2,260.8 145.1,260.8 					"/>
					<polygon class="st3" points="145.1,260.8 151,260.8 150.5,262.5 151,263.7 145.1,263.7 					"/>
					<polygon class="st3" points="107.7,277.5 113.6,277.5 113.1,279.1 113.6,280.3 107.7,280.3 					"/>
					
						<rect x="110.1" y="256.2" transform="matrix(-1 -4.493218e-11 4.493218e-11 -1 231.0159 516.6105)" class="st1" width="10.8" height="4.2"/>
				</g>
				<g>
					
						<rect x="189.5" y="348" transform="matrix(-1 -4.482915e-11 4.482915e-11 -1 407.3716 719.3148)" class="st3" width="28.4" height="23.4"/>
					
						<rect x="203.7" y="348" transform="matrix(-1 -4.482915e-11 4.482915e-11 -1 435.7346 719.3148)" class="st3" width="28.4" height="23.4"/>
					<polygon class="st3" points="189.5,365.4 194,365.4 193.6,364.2 194,363.3 189.5,363.3 					"/>
					<polygon class="st1" points="203.7,355.2 208.2,355.2 207.8,353.9 208.2,353 203.7,353 					"/>
					<polygon class="st3" points="203.7,353 199.2,353 199.6,354.3 199.2,355.2 203.7,355.2 					"/>
					<polygon class="st1" points="232,365.7 227.6,365.7 228,366.9 227.6,367.8 232,367.8 					"/>
					<rect x="222" y="349.5" class="st1" width="8.2" height="3.2"/>
				</g>
			</g>
			<g>
				
					<rect x="1128.8" y="413.8" transform="matrix(-1 -4.455115e-11 4.455115e-11 -1 2275.7866 1111.7402)" class="st1" width="18.2" height="284.2"/>
				
					<rect x="932.2" y="413.8" transform="matrix(-1 -4.470259e-11 4.470259e-11 -1 1879.5613 1111.7402)" class="st1" width="15.1" height="284.2"/>
				
					<rect x="932.2" y="413.8" transform="matrix(-1 -4.491575e-11 4.491575e-11 -1 2061.0005 833.2056)" class="st3" width="196.6" height="5.7"/>
				
					<rect x="932.2" y="516.7" transform="matrix(-1 -4.487889e-11 4.487889e-11 -1 2061.0005 1039.1008)" class="st3" width="196.6" height="5.7"/>
				
					<rect x="932.2" y="603.1" transform="matrix(-1 -4.487889e-11 4.487889e-11 -1 2061.0005 1211.7874)" class="st3" width="196.6" height="5.7"/>
				<g>
					<rect x="980.5" y="476.4" class="st3" width="48.9" height="40.4"/>
					<rect x="956.1" y="476.4" class="st2" width="48.9" height="40.4"/>
					<polygon class="st3" points="1029.5,506.5 1021.7,506.5 1022.4,504.3 1021.7,502.7 1029.5,502.7 					"/>
					<polygon class="st3" points="1005,488.9 997.3,488.9 997.9,486.7 997.3,485.1 1005,485.1 					"/>
					<polygon class="st3" points="1005,485.1 1012.8,485.1 1012.1,487.3 1012.8,488.9 1005,488.9 					"/>
					<polygon class="st3" points="956.1,506.9 963.8,506.9 963.1,509.1 963.8,510.7 956.1,510.7 					"/>
					
						<rect x="959.3" y="479.1" transform="matrix(-1 -4.481094e-11 4.481094e-11 -1 1932.6168 963.6782)" class="st1" width="14.1" height="5.5"/>
				</g>
				<g>
					<rect x="1043.4" y="476.4" class="st1" width="48.9" height="40.4"/>
					<rect x="1018.9" y="476.4" class="st2" width="48.9" height="40.4"/>
					<polygon class="st3" points="1092.3,506.5 1084.5,506.5 1085.2,504.3 1084.5,502.7 1092.3,502.7 					"/>
					<polygon class="st3" points="1067.8,488.9 1060.1,488.9 1060.8,486.7 1060.1,485.1 1067.8,485.1 					"/>
					<polygon class="st3" points="1067.8,485.1 1075.6,485.1 1074.9,487.3 1075.6,488.9 1067.8,488.9 					"/>
					<polygon class="st3" points="1018.9,506.9 1026.6,506.9 1025.9,509.1 1026.6,510.7 1018.9,510.7 					"/>
					<polygon class="st3" points="1018.9,484.6 1026.6,484.6 1025.9,486.8 1026.6,488.3 1018.9,488.3 					"/>
					
						<rect x="1039.9" y="503.5" transform="matrix(-1 -4.492419e-11 4.492419e-11 -1 2102.8069 1015.871)" class="st1" width="23" height="8.9"/>
				</g>
				<g>
					<rect x="987.2" y="568.1" class="st1" width="42.3" height="34.9"/>
					<rect x="966" y="568.1" class="st2" width="42.3" height="34.9"/>
					<polygon class="st3" points="1029.5,594.1 1022.8,594.1 1023.3,592.2 1022.8,590.9 1029.5,590.9 					"/>
					<polygon class="st3" points="1008.3,578.8 1001.6,578.8 1002.2,577 1001.6,575.6 1008.3,575.6 					"/>
					<polygon class="st3" points="1008.3,575.6 1015,575.6 1014.4,577.5 1015,578.8 1008.3,578.8 					"/>
					<polygon class="st3" points="966,594.5 972.7,594.5 972.1,596.4 972.7,597.7 966,597.7 					"/>
					
						<rect x="968.8" y="570.4" transform="matrix(-1 -4.512136e-11 4.512136e-11 -1 1949.7611 1145.572)" class="st1" width="12.2" height="4.7"/>
				</g>
				<g>
					<rect x="1060.9" y="562.6" class="st1" width="48.9" height="40.4"/>
					<rect x="1036.4" y="562.6" class="st2" width="48.9" height="40.4"/>
					<polygon class="st3" points="1109.8,592.7 1102,592.7 1102.7,590.5 1102,589 1109.8,589 					"/>
					<polygon class="st3" points="1085.4,575.1 1077.6,575.1 1078.3,572.9 1077.6,571.3 1085.4,571.3 					"/>
					<polygon class="st3" points="1085.4,571.3 1093.1,571.3 1092.4,573.5 1093.1,575.1 1085.4,575.1 					"/>
					<polygon class="st3" points="1036.4,593.1 1044.2,593.1 1043.5,595.3 1044.2,596.9 1036.4,596.9 					"/>
					
						<rect x="1039.6" y="565.3" transform="matrix(-1 -4.545620e-11 4.545620e-11 -1 2093.3176 1136.1051)" class="st1" width="14.1" height="5.5"/>
				</g>
				<g>
					<rect x="1058.6" y="445.3" class="st1" width="37.4" height="30.9"/>
					<rect x="1039.9" y="445.3" class="st2" width="37.4" height="30.9"/>
					<polygon class="st3" points="1096,468.4 1090.1,468.4 1090.6,466.7 1090.1,465.5 1096,465.5 					"/>
					<polygon class="st3" points="1077.3,454.9 1071.4,454.9 1071.9,453.2 1071.4,452 1077.3,452 					"/>
					<polygon class="st3" points="1077.3,452 1083.3,452 1082.8,453.7 1083.3,454.9 1077.3,454.9 					"/>
					<polygon class="st3" points="1039.9,468.7 1045.9,468.7 1045.3,470.4 1045.9,471.5 1039.9,471.5 					"/>
					
						<rect x="1042.4" y="447.4" transform="matrix(-1 -4.493218e-11 4.493218e-11 -1 2095.5188 899.017)" class="st1" width="10.8" height="4.2"/>
				</g>
				<g>
					<rect x="991.8" y="445.3" class="st1" width="37.4" height="30.9"/>
					<rect x="973.1" y="445.3" class="st2" width="37.4" height="30.9"/>
					<polygon class="st3" points="1029.2,468.4 1023.2,468.4 1023.8,466.7 1023.2,465.5 1029.2,465.5 					"/>
					<polygon class="st3" points="1010.5,454.9 1004.6,454.9 1005.1,453.2 1004.6,452 1010.5,452 					"/>
					<polygon class="st3" points="1010.5,452 1016.4,452 1015.9,453.7 1016.4,454.9 1010.5,454.9 					"/>
					<polygon class="st3" points="973.1,468.7 979,468.7 978.5,470.4 979,471.5 973.1,471.5 					"/>
					
						<rect x="975.5" y="447.4" transform="matrix(-1 -4.493218e-11 4.493218e-11 -1 1961.8004 899.017)" class="st1" width="10.8" height="4.2"/>
				</g>
				<g>
					
						<rect x="1054.9" y="539.2" transform="matrix(-1 -4.476476e-11 4.476476e-11 -1 2138.156 1101.7212)" class="st3" width="28.4" height="23.4"/>
					
						<rect x="1069.1" y="539.2" transform="matrix(-1 -4.476476e-11 4.476476e-11 -1 2166.519 1101.7212)" class="st3" width="28.4" height="23.4"/>
					<polygon class="st3" points="1054.9,556.6 1059.4,556.6 1059,555.4 1059.4,554.5 1054.9,554.5 					"/>
					<polygon class="st1" points="1069.1,546.4 1073.6,546.4 1073.2,545.1 1073.6,544.2 1069.1,544.2 					"/>
					<polygon class="st3" points="1069.1,544.2 1064.6,544.2 1065,545.5 1064.6,546.4 1069.1,546.4 					"/>
					<polygon class="st1" points="1097.4,556.9 1092.9,556.9 1093.3,558.1 1092.9,559 1097.4,559 					"/>
					<rect x="1087.4" y="540.8" class="st1" width="8.2" height="3.2"/>
				</g>
			</g>
			<g>
				
					<rect x="263.4" y="413.8" transform="matrix(-1 -4.455115e-11 4.455115e-11 -1 545.002 1111.7402)" class="st1" width="18.2" height="284.2"/>
				
					<rect x="66.8" y="413.8" transform="matrix(-1 -4.470259e-11 4.470259e-11 -1 148.7767 1111.7402)" class="st1" width="15.1" height="284.2"/>
				
					<rect x="66.8" y="413.8" transform="matrix(-1 -4.491575e-11 4.491575e-11 -1 330.2159 833.2056)" class="st3" width="196.6" height="5.7"/>
				
					<rect x="66.8" y="516.7" transform="matrix(-1 -4.487889e-11 4.487889e-11 -1 330.2159 1039.1008)" class="st3" width="196.6" height="5.7"/>
				
					<rect x="66.8" y="603.1" transform="matrix(-1 -4.487889e-11 4.487889e-11 -1 330.2159 1211.7874)" class="st3" width="196.6" height="5.7"/>
				<g>
					<rect x="115.1" y="476.4" class="st3" width="48.9" height="40.4"/>
					<rect x="90.7" y="476.4" class="st2" width="48.9" height="40.4"/>
					<polygon class="st3" points="164.1,506.5 156.3,506.5 157,504.3 156.3,502.7 164.1,502.7 					"/>
					<polygon class="st3" points="139.6,488.9 131.9,488.9 132.5,486.7 131.9,485.1 139.6,485.1 					"/>
					<polygon class="st3" points="139.6,485.1 147.4,485.1 146.7,487.3 147.4,488.9 139.6,488.9 					"/>
					<polygon class="st3" points="90.7,506.9 98.4,506.9 97.7,509.1 98.4,510.7 90.7,510.7 					"/>
					
						<rect x="93.9" y="479.1" transform="matrix(-1 -4.481094e-11 4.481094e-11 -1 201.8324 963.6782)" class="st1" width="14.1" height="5.5"/>
				</g>
				<g>
					<rect x="178" y="476.4" class="st1" width="48.9" height="40.4"/>
					<rect x="153.5" y="476.4" class="st2" width="48.9" height="40.4"/>
					<polygon class="st3" points="226.9,506.5 219.1,506.5 219.8,504.3 219.1,502.7 226.9,502.7 					"/>
					<polygon class="st3" points="202.4,488.9 194.7,488.9 195.4,486.7 194.7,485.1 202.4,485.1 					"/>
					<polygon class="st3" points="202.4,485.1 210.2,485.1 209.5,487.3 210.2,488.9 202.4,488.9 					"/>
					<polygon class="st3" points="153.5,506.9 161.2,506.9 160.6,509.1 161.2,510.7 153.5,510.7 					"/>
					<polygon class="st3" points="153.5,484.6 161.2,484.6 160.6,486.8 161.2,488.3 153.5,488.3 					"/>
					
						<rect x="174.5" y="503.5" transform="matrix(-1 -4.492419e-11 4.492419e-11 -1 372.0222 1015.871)" class="st1" width="23" height="8.9"/>
				</g>
				<g>
					<rect x="121.8" y="568.1" class="st1" width="42.3" height="34.9"/>
					<rect x="100.6" y="568.1" class="st2" width="42.3" height="34.9"/>
					<polygon class="st3" points="164.1,594.1 157.4,594.1 158,592.2 157.4,590.9 164.1,590.9 					"/>
					<polygon class="st3" points="142.9,578.8 136.2,578.8 136.8,577 136.2,575.6 142.9,575.6 					"/>
					<polygon class="st3" points="142.9,575.6 149.6,575.6 149.1,577.5 149.6,578.8 142.9,578.8 					"/>
					<polygon class="st3" points="100.6,594.5 107.3,594.5 106.7,596.4 107.3,597.7 100.6,597.7 					"/>
					
						<rect x="103.4" y="570.4" transform="matrix(-1 -4.512136e-11 4.512136e-11 -1 218.9766 1145.572)" class="st1" width="12.2" height="4.7"/>
				</g>
				<g>
					<rect x="195.5" y="562.6" class="st1" width="48.9" height="40.4"/>
					<rect x="171" y="562.6" class="st2" width="48.9" height="40.4"/>
					<polygon class="st3" points="244.4,592.7 236.7,592.7 237.3,590.5 236.7,589 244.4,589 					"/>
					<polygon class="st3" points="220,575.1 212.2,575.1 212.9,572.9 212.2,571.3 220,571.3 					"/>
					<polygon class="st3" points="220,571.3 227.7,571.3 227,573.5 227.7,575.1 220,575.1 					"/>
					<polygon class="st3" points="171,593.1 178.8,593.1 178.1,595.3 178.8,596.9 171,596.9 					"/>
					
						<rect x="174.2" y="565.3" transform="matrix(-1 -4.545620e-11 4.545620e-11 -1 362.533 1136.1051)" class="st1" width="14.1" height="5.5"/>
				</g>
				<g>
					<rect x="193.2" y="445.3" class="st1" width="37.4" height="30.9"/>
					<rect x="174.5" y="445.3" class="st2" width="37.4" height="30.9"/>
					<polygon class="st3" points="230.6,468.4 224.7,468.4 225.2,466.7 224.7,465.5 230.6,465.5 					"/>
					<polygon class="st3" points="212,454.9 206,454.9 206.5,453.2 206,452 212,452 					"/>
					<polygon class="st3" points="212,452 217.9,452 217.4,453.7 217.9,454.9 212,454.9 					"/>
					<polygon class="st3" points="174.5,468.7 180.5,468.7 179.9,470.4 180.5,471.5 174.5,471.5 					"/>
					
						<rect x="177" y="447.4" transform="matrix(-1 -4.493218e-11 4.493218e-11 -1 364.7343 899.017)" class="st1" width="10.8" height="4.2"/>
				</g>
				<g>
					<rect x="126.4" y="445.3" class="st1" width="37.4" height="30.9"/>
					<rect x="107.7" y="445.3" class="st2" width="37.4" height="30.9"/>
					<polygon class="st3" points="163.8,468.4 157.9,468.4 158.4,466.7 157.9,465.5 163.8,465.5 					"/>
					<polygon class="st3" points="145.1,454.9 139.2,454.9 139.7,453.2 139.2,452 145.1,452 					"/>
					<polygon class="st3" points="145.1,452 151,452 150.5,453.7 151,454.9 145.1,454.9 					"/>
					<polygon class="st3" points="107.7,468.7 113.6,468.7 113.1,470.4 113.6,471.5 107.7,471.5 					"/>
					
						<rect x="110.1" y="447.4" transform="matrix(-1 -4.493218e-11 4.493218e-11 -1 231.0159 899.017)" class="st1" width="10.8" height="4.2"/>
				</g>
				<g>
					
						<rect x="189.5" y="539.2" transform="matrix(-1 -4.476476e-11 4.476476e-11 -1 407.3716 1101.7212)" class="st3" width="28.4" height="23.4"/>
					
						<rect x="203.7" y="539.2" transform="matrix(-1 -4.476476e-11 4.476476e-11 -1 435.7346 1101.7212)" class="st3" width="28.4" height="23.4"/>
					<polygon class="st3" points="189.5,556.6 194,556.6 193.6,555.4 194,554.5 189.5,554.5 					"/>
					<polygon class="st1" points="203.7,546.4 208.2,546.4 207.8,545.1 208.2,544.2 203.7,544.2 					"/>
					<polygon class="st3" points="203.7,544.2 199.2,544.2 199.6,545.5 199.2,546.4 203.7,546.4 					"/>
					<polygon class="st1" points="232,556.9 227.6,556.9 228,558.1 227.6,559 232,559 					"/>
					<rect x="222" y="540.8" class="st1" width="8.2" height="3.2"/>
				</g>
			</g>
			<g>
				<path class="st1" d="M80.4,129.3h162.8c2.8,0,5.1-2.3,5.1-5.1l0,0c0-2.8-2.3-5.1-5.1-5.1H80.4c-2.8,0-5.1,2.3-5.1,5.1l0,0
					C75.3,127,77.6,129.3,80.4,129.3z"/>
				
					<rect x="222.9" y="49.9" transform="matrix(-1 -4.468571e-11 4.468571e-11 -1 450.7933 169.0255)" class="st1" width="5.1" height="69.2"/>
				
					<rect x="96.3" y="49.9" transform="matrix(-1 -4.450541e-11 4.450541e-11 -1 197.6453 169.0255)" class="st1" width="5.1" height="69.2"/>
			</g>
			<g>
				<path class="st1" d="M651.4,129.3h162.8c2.8,0,5.1-2.3,5.1-5.1l0,0c0-2.8-2.3-5.1-5.1-5.1H651.4c-2.8,0-5.1,2.3-5.1,5.1l0,0
					C646.3,127,648.6,129.3,651.4,129.3z"/>
				
					<rect x="793.9" y="51" transform="matrix(-1 -4.575685e-11 4.575685e-11 -1 1592.9285 170.1134)" class="st1" width="5.1" height="68.1"/>
				
					<rect x="667.3" y="51" transform="matrix(-1 -4.611523e-11 4.611523e-11 -1 1339.7804 170.1134)" class="st1" width="5.1" height="68.1"/>
			</g>
			<g>
				<path class="st1" d="M360.9,129.3h162.8c2.8,0,5.1-2.3,5.1-5.1l0,0c0-2.8-2.3-5.1-5.1-5.1H360.9c-2.8,0-5.1,2.3-5.1,5.1l0,0
					C355.9,127,358.1,129.3,360.9,129.3z"/>
				
					<rect x="503.4" y="51" transform="matrix(-1 -4.432777e-11 4.432777e-11 -1 1011.957 170.1134)" class="st1" width="5.1" height="68.1"/>
				
					<rect x="376.9" y="51" transform="matrix(-1 -4.611523e-11 4.611523e-11 -1 758.8088 170.1134)" class="st1" width="5.1" height="68.1"/>
			</g>
		</g>
	</g>
	<g class="st5">
		<g>
			<g>
				
					<rect x="966.7" y="670.1" transform="matrix(-1 -4.501034e-11 4.501034e-11 -1 2006.6013 1396.5858)" class="st6" width="73.1" height="56.4"/>
				<g class="st7">
					<path class="st8" d="M985.1,726.1c0.1,0,0.1-12.6,0.1-28.1c0-15.5-0.1-28.1-0.1-28.1c-0.1,0-0.1,12.6-0.1,28.1
						C984.9,713.5,985,726.1,985.1,726.1z"/>
				</g>
				<rect x="1009.3" y="670.2" class="st8" width="8.3" height="12"/>
			</g>
			
				<rect x="966.7" y="670.1" transform="matrix(-1 -4.495394e-11 4.495394e-11 -1 1951.663 1396.5858)" class="st9" width="18.2" height="56.4"/>
			
				<rect x="901.5" y="670.2" transform="matrix(-1 -4.495394e-11 4.495394e-11 -1 1821.2861 1396.7384)" class="st9" width="18.2" height="56.4"/>
		</g>
		<g>
			<g>
				
					<rect x="902" y="670.2" transform="matrix(-1 -4.491086e-11 4.491086e-11 -1 1877.2252 1396.7384)" class="st10" width="73.1" height="56.4"/>
				<g>
					<path class="st11" d="M920.4,726.2c0.1,0,0.1-12.6,0.1-28.1c0-15.5-0.1-28.1-0.1-28.1s-0.1,12.6-0.1,28.1
						C920.2,713.6,920.3,726.2,920.4,726.2z"/>
				</g>
				<rect x="944.6" y="670.3" class="st9" width="8.3" height="12"/>
			</g>
			<g>
				<path class="st6" d="M902.7,670.2c0,0,0.1,0,0.2,0c0.1,0,0.3,0,0.5,0c0.5,0,1.2,0,2.1,0c1.8,0,4.5,0,7.8,0c6.6,0,15.6,0,25.6,0
					c10,0,19.1,0,25.6,0c3.3,0,5.9,0,7.8,0c0.9,0,1.6,0,2.1,0c0.2,0,0.4,0,0.5,0c0.1,0,0.2,0,0.2,0s-0.1,0-0.2,0c-0.1,0-0.3,0-0.5,0
					c-0.5,0-1.2,0-2.1,0c-1.8,0-4.5,0-7.8,0c-6.6,0-15.6,0-25.6,0c-10,0-19.1,0-25.6,0c-3.3,0-5.9,0-7.8,0c-0.9,0-1.6,0-2.1,0
					c-0.2,0-0.4,0-0.5,0C902.7,670.2,902.7,670.2,902.7,670.2z"/>
			</g>
		</g>
		<g>
			
				<rect x="933.4" y="613.5" transform="matrix(-1 -4.491086e-11 4.491086e-11 -1 1939.9492 1283.3618)" class="st6" width="73.1" height="56.4"/>
			<g class="st7">
				<path class="st8" d="M951.7,669.5c0.1,0,0.1-12.6,0.1-28.1c0-15.5-0.1-28.1-0.1-28.1c-0.1,0-0.1,12.6-0.1,28.1
					C951.6,656.9,951.7,669.5,951.7,669.5z"/>
			</g>
			<rect x="975.9" y="613.6" class="st8" width="8.3" height="12"/>
		</g>
		
			<rect x="933.4" y="613.5" transform="matrix(-1 -4.495394e-11 4.495394e-11 -1 1885.0109 1283.3618)" class="st9" width="18.2" height="56.4"/>
	</g>
	<linearGradient id="SVGID_1_" gradientUnits="userSpaceOnUse" x1="609.784" y1="38.7458" x2="609.784" y2="211.1229">
		<stop  offset="0" style="stop-color:#FFFFFF"/>
		<stop  offset="1" style="stop-color:#FFFFFF;stop-opacity:0"/>
	</linearGradient>
	<rect x="19.6" y="16.4" class="st12" width="1180.5" height="194.4"/>
	<g>
		<g>
			<g>
				<g>
					<g>
						<path class="st13" d="M890.9,720.7h-586c-14.5,0-26.2-11.8-26.2-26.2V324.6c0-14.5,11.8-26.2,26.2-26.2h586
							c14.5,0,26.2,11.8,26.2,26.2v369.8C917.1,708.9,905.4,720.7,890.9,720.7z"/>
						<g>
							<g>
								<path class="st13" d="M912.7,728.2H282.9c-20.4,0-36.9-16.5-36.9-36.9v-0.7h703.5v0.7C949.6,711.7,933.1,728.2,912.7,728.2z
									"/>
							</g>
						</g>
					</g>
					<g>
						<rect x="295.7" y="315.2" class="st14" width="602.5" height="356.6"/>
					</g>
					<g>
						<polygon class="st15" points="534.9,689.4 543.5,703.1 664.3,703.1 672.2,689.4 						"/>
					</g>
				</g>
				<g>
					<path class="st16" d="M873.9,671.6H319.2V352c0-7.2,5.9-13.1,13.1-13.1h528.5c7.2,0,13.1,5.9,13.1,13.1V671.6z"/>
					<path class="st15" d="M873.9,375.2v-23.6c0-7-5.7-12.6-12.6-12.6H331.8c-7,0-12.6,5.7-12.6,12.6v23.6H873.9z"/>
				</g>
				<g>
					<path class="st16" d="M342.9,355.3c0,2.6-2.1,4.7-4.7,4.7c-2.6,0-4.7-2.1-4.7-4.7c0-2.6,2.1-4.7,4.7-4.7
						C340.8,350.7,342.9,352.8,342.9,355.3z"/>
				</g>
				<g>
					<path class="st16" d="M361.9,355.3c0,2.6-2.1,4.7-4.7,4.7s-4.7-2.1-4.7-4.7c0-2.6,2.1-4.7,4.7-4.7S361.9,352.8,361.9,355.3z"/>
				</g>
				<g>
					<path class="st16" d="M380.9,355.3c0,2.6-2.1,4.7-4.7,4.7s-4.7-2.1-4.7-4.7c0-2.6,2.1-4.7,4.7-4.7S380.9,352.8,380.9,355.3z"/>
				</g>
				<g>
					<rect x="278.6" y="689.7" class="st15" width="638.5" height="2"/>
				</g>
			</g>
		</g>
		<path class="st16" d="M850.4,362h-174c-3,0-5.4-2.4-5.4-5.4v-0.5c0-3,2.4-5.4,5.4-5.4h174c3,0,5.4,2.4,5.4,5.4v0.5
			C855.8,359.6,853.4,362,850.4,362z"/>
		<g>
			<path class="st17" d="M769.4,481.3H496.7c-2.8,0-5.1-2.3-5.1-5.1v-66.5c0-2.8,2.3-5.1,5.1-5.1h272.8c2.8,0,5.1,2.3,5.1,5.1v66.5
				C774.5,479,772.2,481.3,769.4,481.3z"/>
			<g>
				<path class="st18" d="M542.7,446.5h-39.8c-0.7,0-1.2-0.5-1.2-1.2v-29.6c0-0.7,0.5-1.2,1.2-1.2h39.8c0.7,0,1.2,0.5,1.2,1.2v29.6
					C543.9,445.9,543.3,446.5,542.7,446.5z"/>
				<path class="st18" d="M702.3,422h-135c-0.7,0-1.2-0.5-1.2-1.2v-5.2c0-0.7,0.5-1.2,1.2-1.2h135c0.7,0,1.2,0.5,1.2,1.2v5.2
					C703.5,421.5,702.9,422,702.3,422z"/>
				<path class="st18" d="M761.3,442.4H726c-0.7,0-1.2-0.5-1.2-1.2V436c0-0.7,0.5-1.2,1.2-1.2h35.3c0.7,0,1.2,0.5,1.2,1.2v5.2
					C762.5,441.8,761.9,442.4,761.3,442.4z"/>
				<path class="st18" d="M655,432.3h-87.8c-0.7,0-1.2-0.5-1.2-1.2V426c0-0.7,0.5-1.2,1.2-1.2H655c0.7,0,1.2,0.5,1.2,1.2v5.2
					C656.2,431.8,655.7,432.3,655,432.3z"/>
				<path class="st18" d="M699,455.1H567.3c-0.7,0-1.2-0.5-1.2-1.2v-1.4c0-0.7,0.5-1.2,1.2-1.2H699c0.7,0,1.2,0.5,1.2,1.2v1.4
					C700.2,454.5,699.7,455.1,699,455.1z"/>
				<path class="st18" d="M616.8,462.5h-49.5c-0.7,0-1.2-0.5-1.2-1.2v-1.4c0-0.7,0.5-1.2,1.2-1.2h49.5c0.7,0,1.2,0.5,1.2,1.2v1.4
					C617.9,461.9,617.4,462.5,616.8,462.5z"/>
				<path class="st18" d="M757.5,457.9h-27.7c-0.7,0-1.2-0.5-1.2-1.2v-1.4c0-0.7,0.5-1.2,1.2-1.2h27.7c0.7,0,1.2,0.5,1.2,1.2v1.4
					C758.7,457.3,758.2,457.9,757.5,457.9z"/>
				<path class="st18" d="M751.6,450.1h-15.9c-0.7,0-1.2-0.5-1.2-1.2v-1.4c0-0.7,0.5-1.2,1.2-1.2h15.9c0.7,0,1.2,0.5,1.2,1.2v1.4
					C752.8,449.6,752.2,450.1,751.6,450.1z"/>
				<path class="st18" d="M616.8,469.9h-49.5c-0.7,0-1.2-0.5-1.2-1.2v-1.4c0-0.7,0.5-1.2,1.2-1.2h49.5c0.7,0,1.2,0.5,1.2,1.2v1.4
					C617.9,469.3,617.4,469.9,616.8,469.9z"/>
				<g>
					<polygon class="st18" points="506.2,453.2 507.3,455.4 509.7,455.7 508,457.5 508.4,459.9 506.2,458.7 504,459.9 504.4,457.5 
						502.7,455.7 505.1,455.4 					"/>
					<polygon class="st18" points="514.6,453.2 515.7,455.4 518.1,455.7 516.4,457.5 516.8,459.9 514.6,458.7 512.4,459.9 
						512.8,457.5 511.1,455.7 513.5,455.4 					"/>
					<polygon class="st18" points="523,453.2 524.1,455.4 526.5,455.7 524.8,457.5 525.2,459.9 523,458.7 520.8,459.9 521.3,457.5 
						519.5,455.7 521.9,455.4 					"/>
					<polygon class="st18" points="531.4,453.2 532.5,455.4 535,455.7 533.2,457.5 533.6,459.9 531.4,458.7 529.3,459.9 
						529.7,457.5 527.9,455.7 530.3,455.4 					"/>
					<polygon class="st18" points="539.8,453.2 540.9,455.4 543.4,455.7 541.6,457.5 542,459.9 539.8,458.7 537.7,459.9 
						538.1,457.5 536.3,455.7 538.8,455.4 					"/>
				</g>
				<line class="st19" x1="554.2" y1="404.5" x2="554.2" y2="481.8"/>
				<line class="st19" x1="714.1" y1="404.5" x2="714.1" y2="481.8"/>
			</g>
		</g>
		<g>
			<path class="st20" d="M822.7,570.4H550c-2.8,0-5.1-2.3-5.1-5.1v-66.5c0-2.8,2.3-5.1,5.1-5.1h272.8c2.8,0,5.1,2.3,5.1,5.1v66.5
				C827.8,568.1,825.5,570.4,822.7,570.4z"/>
			<g>
				<path class="st21" d="M596,535.6h-39.8c-0.7,0-1.2-0.5-1.2-1.2v-29.6c0-0.7,0.5-1.2,1.2-1.2H596c0.7,0,1.2,0.5,1.2,1.2v29.6
					C597.1,535.1,596.6,535.6,596,535.6z"/>
				<path class="st21" d="M755.6,511.1h-135c-0.7,0-1.2-0.5-1.2-1.2v-5.2c0-0.7,0.5-1.2,1.2-1.2h135c0.7,0,1.2,0.5,1.2,1.2v5.2
					C756.8,510.6,756.2,511.1,755.6,511.1z"/>
				<path class="st21" d="M814.6,531.5h-35.3c-0.7,0-1.2-0.5-1.2-1.2v-5.2c0-0.7,0.5-1.2,1.2-1.2h35.3c0.7,0,1.2,0.5,1.2,1.2v5.2
					C815.8,530.9,815.2,531.5,814.6,531.5z"/>
				<path class="st21" d="M708.3,521.4h-87.8c-0.7,0-1.2-0.5-1.2-1.2v-5.2c0-0.7,0.5-1.2,1.2-1.2h87.8c0.7,0,1.2,0.5,1.2,1.2v5.2
					C709.5,520.9,709,521.4,708.3,521.4z"/>
				<path class="st21" d="M752.3,544.2H620.6c-0.7,0-1.2-0.5-1.2-1.2v-1.4c0-0.7,0.5-1.2,1.2-1.2h131.8c0.7,0,1.2,0.5,1.2,1.2v1.4
					C753.5,543.6,753,544.2,752.3,544.2z"/>
				<path class="st21" d="M670.1,551.6h-49.5c-0.7,0-1.2-0.5-1.2-1.2V549c0-0.7,0.5-1.2,1.2-1.2h49.5c0.7,0,1.2,0.5,1.2,1.2v1.4
					C671.2,551,670.7,551.6,670.1,551.6z"/>
				<path class="st21" d="M810.8,547h-27.7c-0.7,0-1.2-0.5-1.2-1.2v-1.4c0-0.7,0.5-1.2,1.2-1.2h27.7c0.7,0,1.2,0.5,1.2,1.2v1.4
					C812,546.5,811.5,547,810.8,547z"/>
				<path class="st21" d="M804.9,539.2H789c-0.7,0-1.2-0.5-1.2-1.2v-1.4c0-0.7,0.5-1.2,1.2-1.2h15.9c0.7,0,1.2,0.5,1.2,1.2v1.4
					C806.1,538.7,805.5,539.2,804.9,539.2z"/>
				<path class="st21" d="M670.1,559h-49.5c-0.7,0-1.2-0.5-1.2-1.2v-1.4c0-0.7,0.5-1.2,1.2-1.2h49.5c0.7,0,1.2,0.5,1.2,1.2v1.4
					C671.2,558.4,670.7,559,670.1,559z"/>
				<g>
					<polygon class="st21" points="559.5,542.3 560.6,544.5 563,544.8 561.3,546.6 561.7,549 559.5,547.8 557.3,549 557.7,546.6 
						556,544.8 558.4,544.5 					"/>
					<polygon class="st21" points="567.9,542.3 569,544.5 571.4,544.8 569.7,546.6 570.1,549 567.9,547.8 565.7,549 566.1,546.6 
						564.4,544.8 566.8,544.5 					"/>
					<polygon class="st21" points="576.3,542.3 577.4,544.5 579.8,544.8 578.1,546.6 578.5,549 576.3,547.8 574.1,549 574.6,546.6 
						572.8,544.8 575.2,544.5 					"/>
					<g>
						<path class="st21" d="M584.7,543.4l0.7,1.3l0.1,0.2l0.3,0l1.5,0.2l-1.1,1l-0.2,0.2l0,0.3l0.3,1.5l-1.3-0.7l-0.2-0.1l-0.2,0.1
							l-1.3,0.7l0.3-1.5l0-0.3l-0.2-0.2l-1.1-1l1.5-0.2l0.3,0l0.1-0.2L584.7,543.4 M584.7,542.3l-1.1,2.2l-2.4,0.4l1.8,1.7l-0.4,2.4
							l2.2-1.1l2.2,1.1l-0.4-2.4l1.8-1.7l-2.4-0.4L584.7,542.3L584.7,542.3z"/>
					</g>
					<g>
						<path class="st21" d="M593.1,543.4l0.7,1.3l0.1,0.2l0.3,0l1.5,0.2l-1.1,1l-0.2,0.2l0,0.3l0.3,1.5l-1.3-0.7l-0.2-0.1l-0.2,0.1
							l-1.3,0.7l0.3-1.5l0-0.3l-0.2-0.2l-1.1-1l1.5-0.2l0.3,0l0.1-0.2L593.1,543.4 M593.1,542.3l-1.1,2.2l-2.4,0.4l1.8,1.7L591,549
							l2.2-1.1l2.2,1.1l-0.4-2.4l1.8-1.7l-2.4-0.4L593.1,542.3L593.1,542.3z"/>
					</g>
				</g>
				<line class="st20" x1="607.5" y1="493.6" x2="607.5" y2="570.9"/>
				<line class="st20" x1="767.4" y1="493.6" x2="767.4" y2="570.9"/>
			</g>
		</g>
		<g>
			<path class="st20" d="M822.7,659.5H550c-2.8,0-5.1-2.3-5.1-5.1v-66.5c0-2.8,2.3-5.1,5.1-5.1h272.8c2.8,0,5.1,2.3,5.1,5.1v66.5
				C827.8,657.2,825.5,659.5,822.7,659.5z"/>
			<g>
				<path class="st21" d="M596,624.7h-39.8c-0.7,0-1.2-0.5-1.2-1.2v-29.6c0-0.7,0.5-1.2,1.2-1.2H596c0.7,0,1.2,0.5,1.2,1.2v29.6
					C597.1,624.2,596.6,624.7,596,624.7z"/>
				<path class="st21" d="M755.6,600.2h-135c-0.7,0-1.2-0.5-1.2-1.2v-5.2c0-0.7,0.5-1.2,1.2-1.2h135c0.7,0,1.2,0.5,1.2,1.2v5.2
					C756.8,599.7,756.2,600.2,755.6,600.2z"/>
				<path class="st21" d="M814.6,620.6h-35.3c-0.7,0-1.2-0.5-1.2-1.2v-5.2c0-0.7,0.5-1.2,1.2-1.2h35.3c0.7,0,1.2,0.5,1.2,1.2v5.2
					C815.8,620,815.2,620.6,814.6,620.6z"/>
				<path class="st21" d="M708.3,610.5h-87.8c-0.7,0-1.2-0.5-1.2-1.2v-5.2c0-0.7,0.5-1.2,1.2-1.2h87.8c0.7,0,1.2,0.5,1.2,1.2v5.2
					C709.5,610,709,610.5,708.3,610.5z"/>
				<path class="st21" d="M752.3,633.3H620.6c-0.7,0-1.2-0.5-1.2-1.2v-1.4c0-0.7,0.5-1.2,1.2-1.2h131.8c0.7,0,1.2,0.5,1.2,1.2v1.4
					C753.5,632.8,753,633.3,752.3,633.3z"/>
				<path class="st21" d="M670.1,640.7h-49.5c-0.7,0-1.2-0.5-1.2-1.2v-1.4c0-0.7,0.5-1.2,1.2-1.2h49.5c0.7,0,1.2,0.5,1.2,1.2v1.4
					C671.2,640.1,670.7,640.7,670.1,640.7z"/>
				<path class="st21" d="M810.8,636.1h-27.7c-0.7,0-1.2-0.5-1.2-1.2v-1.4c0-0.7,0.5-1.2,1.2-1.2h27.7c0.7,0,1.2,0.5,1.2,1.2v1.4
					C812,635.6,811.5,636.1,810.8,636.1z"/>
				<path class="st21" d="M804.9,628.3H789c-0.7,0-1.2-0.5-1.2-1.2v-1.4c0-0.7,0.5-1.2,1.2-1.2h15.9c0.7,0,1.2,0.5,1.2,1.2v1.4
					C806.1,627.8,805.5,628.3,804.9,628.3z"/>
				<path class="st21" d="M670.1,648.1h-49.5c-0.7,0-1.2-0.5-1.2-1.2v-1.4c0-0.7,0.5-1.2,1.2-1.2h49.5c0.7,0,1.2,0.5,1.2,1.2v1.4
					C671.2,647.5,670.7,648.1,670.1,648.1z"/>
				<g>
					<polygon class="st21" points="559.5,631.4 560.6,633.6 563,634 561.3,635.7 561.7,638.1 559.5,636.9 557.3,638.1 557.7,635.7 
						556,634 558.4,633.6 					"/>
					<polygon class="st21" points="567.9,631.4 569,633.6 571.4,634 569.7,635.7 570.1,638.1 567.9,636.9 565.7,638.1 566.1,635.7 
						564.4,634 566.8,633.6 					"/>
					<polygon class="st21" points="576.3,631.4 577.4,633.6 579.8,634 578.1,635.7 578.5,638.1 576.3,636.9 574.1,638.1 
						574.6,635.7 572.8,634 575.2,633.6 					"/>
					<g>
						<path class="st21" d="M584.7,632.5l0.7,1.3l0.1,0.2l0.3,0l1.5,0.2l-1.1,1l-0.2,0.2l0,0.3l0.3,1.5l-1.3-0.7l-0.2-0.1l-0.2,0.1
							l-1.3,0.7l0.3-1.5l0-0.3l-0.2-0.2l-1.1-1l1.5-0.2l0.3,0l0.1-0.2L584.7,632.5 M584.7,631.4l-1.1,2.2l-2.4,0.4l1.8,1.7l-0.4,2.4
							l2.2-1.1l2.2,1.1l-0.4-2.4l1.8-1.7l-2.4-0.4L584.7,631.4L584.7,631.4z"/>
					</g>
					<g>
						<path class="st21" d="M593.1,632.5l0.7,1.3l0.1,0.2l0.3,0l1.5,0.2l-1.1,1l-0.2,0.2l0,0.3l0.3,1.5l-1.3-0.7l-0.2-0.1l-0.2,0.1
							l-1.3,0.7l0.3-1.5l0-0.3l-0.2-0.2l-1.1-1l1.5-0.2l0.3,0l0.1-0.2L593.1,632.5 M593.1,631.4l-1.1,2.2l-2.4,0.4l1.8,1.7l-0.4,2.4
							l2.2-1.1l2.2,1.1l-0.4-2.4l1.8-1.7l-2.4-0.4L593.1,631.4L593.1,631.4z"/>
					</g>
				</g>
				<line class="st20" x1="607.5" y1="582.7" x2="607.5" y2="660"/>
				<line class="st20" x1="767.4" y1="582.7" x2="767.4" y2="660"/>
			</g>
		</g>
		<g>
			<g>
				<g>
					<g>
						<path class="st14" d="M455,447.6c0-2.1,0.8-3.2,2.1-3.9c1.8-0.9,3.8,1.6,3,3.5c-1,2.3-0.9,4.2-2.5,4.2
							C455.9,451.4,455,449.7,455,447.6z"/>
						<polygon class="st14" points="455.5,449.9 457.2,452.7 459.3,452.6 459,450.4 						"/>
					</g>
					<path class="st14" d="M456,444.7c0,0,3.3-5,3.6-5.2c0.3-0.3,0.9,0.2,0.2,1.7c-0.4,0.8-1.2,3.3-1.2,3.3L456,444.7z"/>
				</g>
				<g>
					<path class="st22" d="M457.4,452.1l2.1,0.5c0.3,0.1,0.5,0.3,0.6,0.5l8.7,30.5l-12,0.5l-0.4-31.3
						C456.4,452.4,456.9,452,457.4,452.1z"/>
					<path class="st14" d="M407.3,532l-4.7,6.9l-2.1-2.8c-1.2-1.5-1.4-3.6-0.6-5.4l3.6-7.9l2.1,0.7
						C408.4,525.4,409.2,529.2,407.3,532z"/>
					<polygon class="st14" points="402.2,522.1 405.6,523.5 402.9,527.1 399.2,524.5 					"/>
					<path class="st10" d="M398.6,420.9c9.2-13.4,32.4-9.8,31.8,11.7c0,0.1,0,0.1,0,0.2c0.1,2.7,0,5.5,0.7,8.1
						c0.4,1.3,1,2.5,1.9,3.4c0.9,0.9,2.2,1.4,3.4,1.7c1.3,0.3,2.7,0.4,4.1,0.6c1.4,0.3,2.9,0.8,4.1,1.6c2.6,1.5,4.7,3.9,5.6,6.8
						c1.8,5.7,0.4,12.4-4,16.7c-1.1,1.1-2.3,2-3.7,2.6c-1.4,0.7-2.9,0.9-4.2,1.2c-2.7,0.6-5.4,1.4-8.1,1.9l-0.1-0.2
						c2.5-1.2,5.1-2.4,7.7-3.3c1.4-0.5,2.6-0.8,3.7-1.5c1.1-0.6,2.1-1.4,2.9-2.4c1.7-1.9,2.9-4.2,3.6-6.7c0.7-2.5,0.8-5.2,0.1-7.6
						c-0.7-2.5-2.3-4.6-4.5-6c-1.1-0.7-2.3-1.2-3.6-1.6c-1.3-0.3-2.7-0.5-4.1-0.8c-1.4-0.4-2.8-1.1-3.9-2.2
						c-1.1-1.1-1.7-2.5-1.9-3.9c-0.2-1-0.3-2-0.3-3c-0.3,4,0.1,8.1,4.2,9.6c2.4,0.9,4.7,0.9,6.9,2.4c2.2,1.4,3.9,3.6,4.7,6.1
						c2.6,7.6-4.1,17.4-12.1,18.3c-3.3,0.3-6.6,1.1-9.8,1.7c-0.9,0.2-13.6,2.8-13.7,2.5c0,0-14.7-43.6-14.7-43.6L398.6,420.9z"/>
					<path class="st22" d="M400.3,526l-30.9-18l4.2-11.5l29.3,25.2c0.5,0.4,0.6,1.1,0.4,1.7l-1,2.1C402,526.1,401,526.4,400.3,526z"
						/>
					<path class="st22" d="M377.4,505.1c-1.4,3-5,4.3-8,2.9c-3-1.4-4.3-5-2.9-8c1.4-3,5-4.3,8-2.9
						C377.6,498.6,378.8,502.1,377.4,505.1z"/>
					<path class="st22" d="M375.9,507.3l-8.5-8.4l24-29.2c2.8-3.8,8.9-2.7,12.2,0.6l0,0c3.3,3.3,6.5,16.8,2.8,19.6L375.9,507.3z"/>
					
						<rect x="406.6" y="448.3" transform="matrix(0.9964 -8.438120e-02 8.438120e-02 0.9964 -37.2556 36.372)" class="st14" width="10.1" height="21.2"/>
					<path class="st22" d="M463.4,479.2c3.3,0.2,5.8,3.1,5.6,6.4c-0.2,3.3-3.1,5.8-6.4,5.6c-3.3-0.2-5.8-3.1-5.6-6.4
						C457.3,481.5,460.1,479,463.4,479.2z"/>
					<path class="st22" d="M467.2,480.1l-6.1,10.8l-37.9-8c-4.5-1.2-6.3-12.5-4.5-16.9l0,0c1.8-4.3,8.8-6.7,12.8-4.3L467.2,480.1z"
						/>
					<path class="st22" d="M410.4,521.7l-18.8-46.1c-0.9-3.8,1.6-7.5,5.4-8.1l27-6.1c3.9-0.5,7.3,2.4,7.4,6.3l9.2,50.2L410.4,521.7z
						"/>
					<path class="st14" d="M413.5,423.4c3.1,3.9,8.7,5.6,10,9.2l0.3,1.7c0,0.1,0,0.2,0,0.2l0-0.1l0.9,5.1c1.1,6.4-3.2,12.5-9.6,13.5
						c-6.4,1.1-12.5-3.2-13.5-9.6l-1-5.7C401.2,431.9,411.8,431.5,413.5,423.4z"/>
					<path class="st14" d="M402.7,440.7c0.3,1.5-0.8,2.9-2.2,3.1c-1.5,0.3-2.9-0.7-3.1-2.2s0.8-2.9,2.2-3.1S402.5,439.2,402.7,440.7
						z"/>
					<path class="st23" d="M427.4,519.6l-17.2,58.1l2.2-4.9c0.2-0.5,0.6-0.9,1.1-1.1l4.5-1.9c0.6-0.3,1.4,0.2,1.4,0.9l9.3,106.4
						c0.1,0.5,0.5,0.8,0.9,0.8h5.5c0.5,0,0.9-0.4,0.9-0.8l11.5-113.8c0.6-7.5,0-15.1-1.7-22.5l-5.2-22.9L427.4,519.6z"/>
					<path class="st23" d="M427.4,519.6l-13.5,49.7l-47.6,108.3c-0.1,0.2-0.4,0.4-0.6,0.4H360c-0.5,0-0.8-0.4-0.7-0.9l29-113.4
						c2.2-10.9,6.8-21.3,13.4-30.2l8.7-11.8L427.4,519.6z"/>
					<polygon class="st14" points="431.2,686.1 435.3,686.1 435.3,678 429.9,678 					"/>
					<polygon class="st14" points="435.4,684.3 433,685.4 430.8,684.3 428.7,690.9 447.5,690.9 440.4,687.6 					"/>
					<polygon class="st14" points="361.7,686.1 357.5,686.1 360,678 365.4,678 					"/>
					<polygon class="st14" points="357.4,684.3 359.8,685.4 362.1,684.3 364.1,690.9 345.3,690.9 352.4,687.6 					"/>
					<circle class="st22" cx="430.9" cy="486.6" r="8.5"/>
					<polygon class="st14" points="423.3,461.7 422.2,480 406.4,463.9 					"/>
					<path class="st10" d="M388.9,424.8c1.4-1.7,3-3.1,4.8-4.1c3-1.6,6.3-1.4,9-3.7l-2.1,21.4c-3.9-1.1-3.7,7.3,0.8,5
						c0,0,8.9,3.8,12.3,12.2c2.3,5.6,2.7,12.2,2.1,15.9c-1.1,6.7-6.8,10.2-13.3,8.2c-3.9-1.2-7-4.1-9.2-7.5
						c-7.8-11.8-13-31.3-6.3-44.6C387.6,426.6,388.2,425.7,388.9,424.8z"/>
				</g>
			</g>
			<path class="st24" d="M428.6,677.2l-9.3-106.4c-0.1-0.7-0.8-1.1-1.4-0.9l-4.6,1.9c-0.5,0.2-0.9,0.6-1.2,1.1
				c-0.8,1.9-2.5,6.3-3.7,8.7c0,0,2.7-11.2,5.4-14.2c0,0,13.6-10.2,13.6,3.9L428.6,677.2z"/>
		</g>
	</g>
	<g>
		<g>
			<g>
				<g>
					<path class="st10" d="M218.2,587.7c-9.4-14.4-9.1-35.5,2.2-48.5c3.5-4,8.4-7.6,13.7-7.1c5.5,0.5,9.8,5.1,11.5,10.4
						c1.7,5.2,1.1,10.9,0.1,16.3c-1.4,7.5-3.6,15.3-8.9,20.9C231.6,585.2,224.9,591.4,218.2,587.7"/>
				</g>
				<g>
					<path class="st10" d="M222.4,656.6c-3.5-8.3-1-18.8,6-24.5c2.2-1.8,5-3.1,7.7-2.4c2.8,0.7,4.6,3.5,5,6.4
						c0.4,2.8-0.4,5.7-1.4,8.4c-1.4,3.8-3.3,7.5-6.5,9.9C230,656.9,225.5,659.2,222.4,656.6"/>
				</g>
				<g>
					<path class="st10" d="M199.7,651.7c2.6-12.8-4.1-26.9-15.7-32.9c-3.6-1.9-8-3-11.6-1.2c-3.7,1.9-5.5,6.4-5.2,10.5
						c0.3,4.1,2.3,7.9,4.5,11.5c3.1,4.9,6.8,9.7,12.1,12.2C189,654.3,196,656.2,199.7,651.7"/>
				</g>
				<g>
					<path class="st10" d="M201.3,617.1c4.5-14.6-3.1-32.2-15.9-40.6c-4-2.6-9-4.4-13.4-2.7c-4.5,1.7-7.1,6.8-7.3,11.6
						c-0.1,4.8,1.7,9.5,3.9,13.9c3,6.1,6.8,12.1,12.6,15.6C187.1,618.4,196.5,621.9,201.3,617.1"/>
				</g>
				<g>
					<g>
						<path class="st14" d="M210.4,688.3c0,0-0.1-0.2-0.1-0.7c-0.1-0.5-0.2-1.2-0.3-2c-0.1-0.4-0.1-0.9-0.2-1.5
							c-0.1-0.5-0.2-1.1-0.3-1.7c-0.2-1.2-0.5-2.7-0.9-4.2c-0.2-0.8-0.4-1.6-0.6-2.4c-0.2-0.8-0.5-1.7-0.8-2.6
							c-0.5-1.8-1.2-3.7-1.9-5.7c-1.5-3.9-3.3-8.2-5.6-12.5c-2.3-4.3-4.8-8.2-7.3-11.6c-1.3-1.7-2.4-3.3-3.7-4.7
							c-0.6-0.7-1.2-1.4-1.7-2.1c-0.6-0.6-1.2-1.2-1.7-1.8c-1.1-1.2-2.1-2.2-3-3.1c-0.4-0.4-0.9-0.9-1.3-1.2c-0.4-0.4-0.8-0.7-1.1-1
							c-0.6-0.6-1.1-1-1.5-1.4c-0.3-0.3-0.5-0.5-0.5-0.5c0,0,0.2,0.1,0.6,0.4c0.4,0.3,0.9,0.8,1.6,1.3c0.4,0.3,0.7,0.6,1.2,0.9
							c0.4,0.4,0.8,0.8,1.3,1.2c0.9,0.9,2,1.8,3.1,3c0.6,0.6,1.1,1.2,1.7,1.8c0.6,0.7,1.2,1.3,1.8,2.1c1.3,1.4,2.4,3,3.8,4.7
							c2.5,3.4,5,7.3,7.4,11.6c2.3,4.3,4.1,8.6,5.6,12.6c0.7,2,1.4,3.9,1.8,5.7c0.3,0.9,0.5,1.8,0.7,2.6c0.2,0.9,0.4,1.7,0.6,2.5
							c0.4,1.6,0.6,3,0.8,4.2c0.1,0.6,0.2,1.2,0.3,1.7c0.1,0.5,0.1,1,0.2,1.5c0.1,0.8,0.1,1.5,0.2,2
							C210.4,688.1,210.4,688.3,210.4,688.3z"/>
					</g>
				</g>
				<g>
					<g>
						<path class="st14" d="M210,690.9c0,0,0-0.1,0-0.3c0-0.2,0-0.5,0.1-0.8c0.1-0.8,0.2-1.9,0.3-3.2c0.1-0.7,0.1-1.5,0.2-2.3
							c0.1-0.9,0.1-1.8,0.1-2.8c0.1-2,0.3-4.3,0.2-6.8c0-1.3,0-2.6,0-4c0-1.4-0.1-2.8-0.2-4.3c-0.1-3-0.5-6.1-0.9-9.4
							c-0.9-6.6-2.3-13.8-4.5-21.2c-2.2-7.4-5-14.2-7.8-20.2c-1.5-3-2.9-5.8-4.4-8.4c-0.7-1.3-1.4-2.5-2.2-3.7
							c-0.7-1.2-1.5-2.3-2.1-3.3c-1.3-2.2-2.7-4-3.9-5.6c-0.6-0.8-1.1-1.6-1.6-2.3c-0.5-0.7-1-1.3-1.5-1.8c-0.8-1.1-1.5-1.9-2-2.5
							c-0.2-0.3-0.4-0.5-0.5-0.7c-0.1-0.2-0.2-0.2-0.2-0.2c0,0,0.1,0.1,0.2,0.2c0.2,0.2,0.3,0.4,0.6,0.6c0.5,0.6,1.2,1.4,2.1,2.5
							c0.5,0.5,1,1.1,1.5,1.8c0.5,0.7,1.1,1.4,1.7,2.2c1.2,1.6,2.6,3.4,4,5.6c0.7,1.1,1.4,2.2,2.2,3.3c0.8,1.2,1.4,2.4,2.2,3.7
							c1.6,2.5,3,5.4,4.5,8.4c2.9,6,5.6,12.9,7.9,20.3c2.2,7.4,3.6,14.6,4.4,21.3c0.3,3.3,0.7,6.5,0.8,9.5c0.1,1.5,0.2,2.9,0.2,4.3
							c0,1.4,0,2.7,0,4c0,2.5-0.2,4.8-0.3,6.8c-0.1,1-0.1,1.9-0.2,2.8c-0.1,0.8-0.2,1.6-0.3,2.3c-0.2,1.4-0.3,2.4-0.4,3.2
							c0,0.3-0.1,0.6-0.1,0.8C210.1,690.8,210,690.9,210,690.9z"/>
					</g>
				</g>
				<g>
					<g>
						<path class="st14" d="M234.6,549.5c0,0,0,0.1-0.1,0.3c-0.1,0.2-0.2,0.5-0.4,0.8c-0.4,0.7-0.9,1.7-1.6,2.9
							c-0.3,0.6-0.8,1.3-1.2,2.1c-0.4,0.8-0.8,1.6-1.3,2.5c-0.5,0.9-0.9,1.9-1.5,2.9c-0.5,1-1,2.2-1.5,3.3c-0.5,1.2-1.1,2.4-1.6,3.7
							c-0.5,1.3-1,2.7-1.6,4.1c-0.3,0.7-0.5,1.4-0.8,2.1c-0.2,0.7-0.5,1.5-0.8,2.2c-0.5,1.5-1,3.1-1.6,4.7c-2,6.5-3.9,13.7-5.5,21.3
							c-1.5,7.7-2.6,15-3.4,21.7c-0.7,6.7-1.2,12.8-1.3,17.9c-0.1,2.6-0.2,4.9-0.2,6.9c0,2,0,3.8,0,5.2c0,1.4,0,2.5,0,3.3
							c0,0.3,0,0.6,0,0.9c0,0.2,0,0.3,0,0.3c0,0,0-0.1,0-0.3c0-0.2,0-0.5-0.1-0.9c0-0.8-0.1-1.9-0.2-3.3c-0.1-1.4-0.1-3.2-0.1-5.2
							c0-2,0-4.4,0.1-6.9c0.1-5.1,0.5-11.2,1.2-18c0.8-6.7,1.8-14.1,3.4-21.8c1.6-7.7,3.5-14.9,5.6-21.3c0.5-1.6,1.1-3.2,1.6-4.7
							c0.3-0.8,0.5-1.5,0.8-2.2c0.3-0.7,0.6-1.4,0.8-2.1c0.6-1.4,1.1-2.8,1.6-4.1c0.5-1.3,1.1-2.5,1.6-3.7c0.5-1.2,1-2.3,1.5-3.3
							c0.5-1,1-2,1.5-2.9c0.5-0.9,0.9-1.7,1.3-2.5c0.4-0.8,0.8-1.4,1.2-2.1c0.7-1.2,1.3-2.1,1.7-2.8c0.2-0.3,0.3-0.5,0.5-0.7
							C234.5,549.6,234.6,549.5,234.6,549.5z"/>
					</g>
				</g>
				<g>
					<g>
						<path class="st14" d="M231.4,638c0,0-0.3,0.6-1,1.8c-0.7,1.1-1.6,2.7-2.7,4.8c-1.1,2-2.3,4.5-3.6,7.3c-1.2,2.8-2.4,6-3.5,9.4
							c-1,3.4-1.8,6.7-2.4,9.7c-0.6,3-1,5.8-1.2,8.1c-0.2,2.3-0.4,4.2-0.4,5.5c-0.1,1.3-0.1,2-0.2,2c0,0-0.1-0.7-0.1-2
							c0-1.3,0-3.2,0.2-5.5c0.2-2.3,0.5-5.1,1.1-8.1c0.6-3,1.3-6.3,2.4-9.8c1.1-3.4,2.3-6.6,3.5-9.4c1.3-2.8,2.5-5.3,3.7-7.3
							c1.2-2,2.2-3.6,2.9-4.7C230.9,638.5,231.3,638,231.4,638z"/>
					</g>
				</g>
			</g>
			<g>
				<polygon class="st15" points="191.9,681.8 233.3,681.8 228.2,724.1 197,724.1 				"/>
			</g>
			<g>
				<polygon class="st14" points="193.4,719.5 196.9,724.1 228.2,724.1 231.9,719.7 				"/>
			</g>
			<g>
				<g>
					<path class="st10" d="M231.6,694.3c0,0.2-8.6,0.3-19.2,0.3c-10.6,0-19.2-0.1-19.2-0.3c0-0.2,8.6-0.3,19.2-0.3
						C223.1,694,231.6,694.1,231.6,694.3z"/>
				</g>
			</g>
			<g>
				<g>
					<path class="st10" d="M231.6,697.1c0,0.2-8.6,0.3-19.2,0.3c-10.6,0-19.2-0.1-19.2-0.3c0-0.2,8.6-0.3,19.2-0.3
						C223.1,696.8,231.6,696.9,231.6,697.1z"/>
				</g>
			</g>
			<g>
				<g>
					<path class="st10" d="M231.1,699.8c0,0.2-8.3,0.3-18.5,0.3c-10.2,0-18.5-0.1-18.5-0.3c0-0.2,8.3-0.3,18.5-0.3
						C222.8,699.5,231.1,699.6,231.1,699.8z"/>
				</g>
			</g>
		</g>
		<g>
			<path class="st14" d="M198.2,590.7c0,0,0,0.1,0,0.4c0,0.3-0.1,0.7-0.1,1.1c-0.1,1.1-0.3,2.5-0.4,4.2c-0.4,3.6-0.9,8.5-1.6,13.9
				c0,0.2,0,0.4-0.1,0.6l0,0.2l-0.2,0c-5.3,0.1-10.1,0.1-13.6,0.2c-1.7,0-3.1,0-4.1,0c-0.4,0-0.8,0-1.1,0c-0.3,0-0.4,0-0.4,0
				c0,0,0.1,0,0.4,0c0.3,0,0.7,0,1.1-0.1c1,0,2.4-0.1,4.1-0.1c3.5-0.1,8.2-0.2,13.6-0.3l-0.2,0.2c0-0.2,0-0.4,0.1-0.6
				c0.6-5.4,1.2-10.3,1.7-13.9c0.2-1.7,0.4-3.1,0.6-4.2c0.1-0.5,0.1-0.8,0.2-1.1C198.1,590.8,198.2,590.7,198.2,590.7z"/>
		</g>
		<g>
			<path class="st14" d="M188.8,578.1c0,0,0,0.1,0,0.4c0,0.3,0,0.7,0,1.2c0,1.1,0,2.6,0,4.4c-0.1,3.7-0.2,8.8-0.3,14.4
				c0,0.2,0,0.5,0,0.7l0,0.2l-0.2,0c-5.4-0.4-10.4-0.4-13.9-0.3c-1.8,0.1-3.2,0.1-4.2,0.2c-0.5,0-0.8,0-1.1,0.1c-0.3,0-0.4,0-0.4,0
				c0,0,0.1,0,0.4-0.1c0.3,0,0.6-0.1,1.1-0.1c1-0.1,2.4-0.2,4.2-0.3c3.6-0.2,8.5-0.2,14,0.2l-0.2,0.2c0-0.2,0-0.4,0-0.7
				c0.1-5.6,0.3-10.7,0.4-14.4c0.1-1.8,0.1-3.3,0.2-4.4c0-0.5,0-0.9,0.1-1.2C188.7,578.2,188.8,578.1,188.8,578.1z"/>
		</g>
		<g>
			<path class="st14" d="M177.8,573.8c0,0,0.1,0.4,0.3,1.2c0.2,0.9,0.4,2,0.6,3.3c0.5,2.8,1.4,6.7,2.6,10.9l0.1,0.4l-0.4-0.2
				c-0.2-0.1-0.3-0.2-0.5-0.2c-4.1-2-8.1-2.9-11-3.2c-1.5-0.2-2.7-0.2-3.5-0.3c-0.8,0-1.3,0-1.3-0.1c0,0,0.1,0,0.3,0
				c0.2,0,0.5,0,1,0c0.8,0,2,0,3.5,0.1c3,0.3,7.1,1.2,11.2,3.1c0.2,0.1,0.3,0.2,0.5,0.2l-0.3,0.2c-1.2-4.3-2-8.2-2.4-11
				c-0.2-1.4-0.4-2.6-0.5-3.4C177.8,574.2,177.7,573.8,177.8,573.8z"/>
		</g>
		<g>
			<path class="st14" d="M236.2,650.8c0,0.1-1.2-0.1-3.1-0.1c-1.9-0.1-4.6-0.1-7.5,0.2c-0.6,0.1-1.2,0.1-1.7,0.2l-0.2,0l0-0.2
				c-0.4-2.5-0.8-4.7-1.1-6.3c-0.3-1.6-0.4-2.5-0.3-2.6c0.1,0,0.3,0.9,0.6,2.5c0.3,1.6,0.7,3.8,1.2,6.3l-0.2-0.2
				c0.6-0.1,1.1-0.2,1.7-0.2c3-0.3,5.7-0.3,7.6-0.1c1,0.1,1.7,0.2,2.3,0.3C235.9,650.7,236.2,650.8,236.2,650.8z"/>
		</g>
		<g>
			<path class="st14" d="M240.1,643.1c0,0.1-1.2-0.2-3-0.4c-1.9-0.2-4.5-0.4-7.3-0.1c-0.4,0-0.9,0.1-1.3,0.2l-0.2,0l0-0.2
				c-0.3-2.6-0.5-4.9-0.6-6.5c-0.1-1.6-0.2-2.6-0.1-2.6c0.1,0,0.2,1,0.4,2.6c0.2,1.6,0.5,3.9,0.7,6.5l-0.2-0.2
				c0.4-0.1,0.9-0.1,1.3-0.2c2.9-0.3,5.6-0.1,7.4,0.2c0.9,0.2,1.7,0.3,2.2,0.5C239.9,642.9,240.1,643,240.1,643.1z"/>
		</g>
		<g>
			<path class="st14" d="M242.9,569.5c0,0-0.1,0.1-0.4,0.2c-0.3,0.1-0.7,0.3-1.2,0.5c-1.1,0.5-2.6,1.1-4.5,1.9
				c-3.8,1.6-9.1,3.8-14.8,6.1c-0.3,0.1-0.5,0.2-0.8,0.3l-0.2,0.1l-0.1-0.2c-2.4-5.5-4.6-10.5-6.3-14.2c-0.8-1.8-1.4-3.2-1.8-4.3
				c-0.2-0.5-0.4-0.9-0.5-1.2c-0.1-0.3-0.2-0.4-0.1-0.4c0,0,0.1,0.1,0.2,0.4c0.1,0.3,0.3,0.7,0.6,1.1c0.5,1,1.2,2.5,2,4.2
				c1.6,3.6,3.9,8.6,6.4,14.1l-0.3-0.1c0.3-0.1,0.5-0.2,0.8-0.3c5.8-2.3,11-4.5,14.9-6c1.9-0.7,3.4-1.3,4.5-1.8
				c0.5-0.2,0.9-0.3,1.2-0.5C242.8,569.5,242.9,569.4,242.9,569.5z"/>
		</g>
		<g>
			<path class="st14" d="M246.6,551.6c0,0-0.1,0.1-0.4,0.3c-0.3,0.2-0.6,0.4-1.1,0.7c-1,0.6-2.4,1.5-4,2.5c-3.5,2.1-8.2,5-13.5,8.2
				l-0.2,0.1l-0.1-0.2c-0.1-0.2-0.2-0.4-0.2-0.7c-2.2-5.9-4.2-11.3-5.7-15.2c-0.7-1.9-1.3-3.5-1.7-4.6c-0.2-0.5-0.3-0.9-0.4-1.3
				c-0.1-0.3-0.1-0.4-0.1-0.5c0,0,0.1,0.1,0.2,0.4c0.1,0.3,0.3,0.7,0.5,1.2c0.4,1.1,1.1,2.7,1.8,4.6c1.5,3.9,3.5,9.3,5.8,15.2
				c0.1,0.2,0.2,0.4,0.2,0.7l-0.3-0.1c5.3-3.2,10.1-6,13.5-8.1c1.7-1,3.1-1.8,4.1-2.4c0.5-0.3,0.8-0.5,1.1-0.6
				C246.4,551.6,246.5,551.6,246.6,551.6z"/>
		</g>
		<g>
			<path class="st14" d="M245.4,542c0,0-0.3,0.2-0.9,0.5c-0.6,0.3-1.4,0.8-2.4,1.4c-2,1.3-4.8,3.2-7.5,5.9l-0.5,0.5l0.2-0.7
				c0.2-0.7,0.3-1.5,0.5-2.3c0.7-4.3,0.2-8.3-0.6-11c-0.4-1.4-0.8-2.5-1.1-3.2c-0.3-0.7-0.5-1.2-0.4-1.2c0,0,0.2,0.4,0.6,1.1
				c0.3,0.7,0.8,1.8,1.2,3.2c0.8,2.8,1.4,6.8,0.7,11.2c-0.1,0.8-0.3,1.6-0.5,2.4l-0.3-0.2c2.8-2.7,5.6-4.6,7.7-5.8
				c1-0.6,1.9-1,2.5-1.3C245,542.1,245.4,542,245.4,542z"/>
		</g>
		<g>
			<path class="st14" d="M198.1,634.9c0,0,0,0.4-0.2,1.1c-0.1,0.7-0.4,1.7-0.6,2.9c-0.5,2.5-0.9,5.9-1.1,9.8l0,0.2l-0.2,0
				c-0.3,0-0.6,0-0.9,0.1c-4.1,0.2-7.8,0.4-10.5,0.6c-1.3,0.1-2.4,0.1-3.2,0.1c-0.8,0-1.2,0-1.2,0c0,0,0.4-0.1,1.2-0.2
				c0.8-0.1,1.9-0.2,3.2-0.3c2.7-0.2,6.4-0.4,10.5-0.7c0.3,0,0.6,0,0.9-0.1l-0.2,0.2c0.2-3.9,0.7-7.4,1.2-9.8
				c0.3-1.2,0.5-2.2,0.7-2.9C198,635.2,198.1,634.9,198.1,634.9z"/>
		</g>
		<g>
			<path class="st14" d="M190,623.2c0,0,0,0.4-0.1,1.1c-0.1,0.8-0.2,1.8-0.3,2.9c-0.3,2.5-0.7,5.9-1.3,9.8l0,0.2l-0.2,0
				c-0.4,0-0.9,0.1-1.3,0.1c-4.2,0.3-8,0.7-10.7,1.1c-1.3,0.2-2.4,0.3-3.2,0.4c-0.8,0.1-1.2,0.2-1.2,0.1c0,0,0.4-0.1,1.2-0.3
				c0.8-0.2,1.9-0.4,3.2-0.6c2.7-0.4,6.5-0.9,10.8-1.2c0.5,0,0.9-0.1,1.3-0.1l-0.2,0.2c0.5-3.9,1-7.3,1.4-9.8
				c0.2-1.2,0.3-2.2,0.5-2.9C189.9,623.6,190,623.2,190,623.2z"/>
		</g>
		<g>
			<path class="st14" d="M180.4,618.2c0.1,0-0.2,1.1-0.5,3c-0.3,1.8-0.6,4.4-0.7,7.3l0,0.2l-0.2,0c-0.2,0-0.5-0.1-0.7-0.1
				c-3-0.4-5.8-0.5-7.8-0.5c-0.9,0-1.7,0-2.4,0c-0.6,0-0.9,0-0.9,0c0,0,0.3-0.1,0.9-0.1c0.6-0.1,1.4-0.1,2.4-0.2
				c2-0.1,4.8,0,7.9,0.3c0.2,0,0.5,0.1,0.7,0.1l-0.2,0.2c0.1-2.9,0.4-5.5,0.8-7.4c0.2-0.9,0.4-1.7,0.5-2.2
				C180.3,618.4,180.4,618.2,180.4,618.2z"/>
		</g>
		<g>
			<path class="st14" d="M235,629.8c0.1,0.1-0.8,1.9-1.8,4.2c-1.1,2.3-1.9,4.2-2,4.1c-0.1,0,0.5-2,1.6-4.3
				C233.8,631.5,234.9,629.8,235,629.8z"/>
		</g>
		<g>
			<path class="st14" d="M240.2,635.3c0,0.1-2.2,0.2-4.7,1c-2.5,0.8-4.3,2-4.4,1.9c-0.1-0.1,1.7-1.5,4.3-2.3
				C237.9,635.1,240.2,635.2,240.2,635.3z"/>
		</g>
	</g>
	<g>
		<g>
			<g>
				<g>
					<g>
						
							<rect x="876.6" y="626.1" transform="matrix(-1 -4.487223e-11 4.487223e-11 -1 1838.2894 1317.7247)" class="st15" width="85" height="65.6"/>
						<g class="st25">
							<path class="st26" d="M897.9,691.2c0.1,0,0.1-14.6,0.1-32.7c0-18-0.1-32.7-0.1-32.7s-0.1,14.6-0.1,32.7
								C897.8,676.6,897.9,691.2,897.9,691.2z"/>
						</g>
						<rect x="926.1" y="626.2" class="st8" width="9.7" height="14"/>
						
							<rect x="876.6" y="626.1" transform="matrix(-1 -4.473190e-11 4.473190e-11 -1 1774.5503 1317.2615)" class="st27" width="21.3" height="65.1"/>
					</g>
				</g>
				<g>
					<g>
						
							<rect x="832.8" y="560.5" transform="matrix(-1 -4.487223e-11 4.487223e-11 -1 1750.5532 1186.528)" class="st10" width="85" height="65.6"/>
						<g>
							<path class="st28" d="M854.1,625.6c0.1,0,0.1-14.6,0.1-32.7c0-18-0.1-32.7-0.1-32.7s-0.1,14.6-0.1,32.7
								C853.9,611,854,625.6,854.1,625.6z"/>
						</g>
						<rect x="882.2" y="560.6" class="st9" width="9.7" height="14"/>
					</g>
					<g>
						<path class="st6" d="M833.5,560.5c0,0,0.1,0,0.2,0c0.2,0,0.4,0,0.6,0c0.6,0,1.4,0,2.5,0c2.1,0,5.2,0,9,0c7.6,0,18.2,0,29.8,0
							c11.6,0,22.2,0,29.8,0c3.8,0,6.9,0,9,0c1.1,0,1.9,0,2.5,0c0.3,0,0.5,0,0.6,0c0.1,0,0.2,0,0.2,0c0,0-0.1,0-0.2,0
							c-0.2,0-0.4,0-0.6,0c-0.6,0-1.4,0-2.5,0c-2.1,0-5.2,0-9,0c-7.6,0-18.2,0-29.8,0c-11.6,0-22.2,0-29.8,0c-3.8,0-6.9,0-9,0
							c-1.1,0-1.9,0-2.5,0c-0.3,0-0.5,0-0.6,0C833.6,560.5,833.5,560.5,833.5,560.5z"/>
					</g>
				</g>
				<g>
					<g>
						
							<rect x="800.6" y="626.1" transform="matrix(-1 -4.487223e-11 4.487223e-11 -1 1686.2313 1317.8832)" class="st6" width="85" height="65.6"/>
						<g class="st7">
							<path class="st8" d="M821.9,691.3c0.1,0,0.1-14.6,0.1-32.7c0-18-0.1-32.7-0.1-32.7c-0.1,0-0.1,14.6-0.1,32.7
								C821.8,676.7,821.8,691.3,821.9,691.3z"/>
						</g>
						<rect x="850" y="626.3" class="st8" width="9.7" height="14"/>
					</g>
					
						<rect x="800.6" y="626.1" transform="matrix(-1 -4.502189e-11 4.502189e-11 -1 1622.3549 1317.8832)" class="st9" width="21.2" height="65.6"/>
					
						<rect x="832.2" y="560.5" transform="matrix(-1 -4.467816e-11 4.467816e-11 -1 1685.5132 1186.528)" class="st9" width="21.2" height="65.6"/>
				</g>
			</g>
			<g>
				<path class="st16" d="M930.3,682.3h22.9c0.4,0,0.8-0.4,0.8-0.8V668c0-0.4-0.4-0.8-0.8-0.8h-22.9c-0.4,0-0.8,0.4-0.8,0.8v13.5
					C929.5,682,929.9,682.3,930.3,682.3z"/>
				<line class="st29" x1="951.7" y1="669.7" x2="951.7" y2="680.7"/>
				<line class="st29" x1="949.7" y1="669.7" x2="949.7" y2="679"/>
				<line class="st29" x1="947.7" y1="669.7" x2="947.7" y2="679"/>
				<line class="st29" x1="945.7" y1="669.7" x2="945.7" y2="679"/>
				<line class="st29" x1="943.7" y1="669.7" x2="943.7" y2="679"/>
				<line class="st29" x1="941.7" y1="669.7" x2="941.7" y2="680.7"/>
				<line class="st29" x1="939.6" y1="669.7" x2="939.6" y2="679"/>
				<line class="st29" x1="937.6" y1="669.7" x2="937.6" y2="679"/>
				<line class="st29" x1="935.6" y1="669.7" x2="935.6" y2="679"/>
				<line class="st29" x1="933.6" y1="669.7" x2="933.6" y2="679"/>
				<line class="st29" x1="931.6" y1="669.7" x2="931.6" y2="680.7"/>
			</g>
		</g>
	</g>
</g>
</svg>
